<svg width="16" height="14" viewBox="0 0 16 14" fill="none" xmlns="http://www.w3.org/2000/svg">
<path d="M15.9968 2.26978C15.397 2.53094 14.7637 2.69416 14.0972 2.7921C14.7637 2.40036 15.297 1.78012 15.5303 1.02929C14.8971 1.38838 14.1972 1.64954 13.4307 1.81276C12.8308 1.19252 11.9643 0.800781 11.0312 0.800781C9.23151 0.800781 7.76513 2.23714 7.76513 3.99994C7.76513 4.2611 7.79846 4.48961 7.86511 4.71812C5.16565 4.58754 2.73279 3.31441 1.09978 1.35574C0.833169 1.84541 0.666535 2.36772 0.666535 2.95532C0.666535 4.06523 1.23309 5.04457 2.13291 5.63217C1.59968 5.59952 1.09978 5.46894 0.633208 5.24043V5.27308C0.633208 6.84001 1.76632 8.14579 3.26602 8.43959C2.99941 8.50488 2.69947 8.53753 2.39953 8.53753C2.19957 8.53753 1.96628 8.50488 1.76632 8.47224C2.19957 9.74537 3.39933 10.6921 4.83238 10.6921C3.69927 11.5408 2.29955 12.0631 0.766515 12.0631C0.499901 12.0631 0.233287 12.0631 0 12.0305C1.46638 12.9445 3.16604 13.4668 5.03234 13.4668C11.0645 13.4668 14.3638 8.57017 14.3638 4.32639C14.3638 4.19581 14.3638 4.03259 14.3638 3.90201C14.997 3.47763 15.5636 2.92267 15.9968 2.26978Z" fill="#27272A"/>
</svg>
