<svg width="85" height="84" viewBox="0 0 85 84" fill="none" xmlns="http://www.w3.org/2000/svg">
<circle cx="42.1055" cy="42" r="42" fill="#EEF2FF"/>
<path d="M32.3971 38.118C32.8939 41.3468 35.3889 45.4562 39.487 46.9013C41.1691 47.4883 43.0093 47.4996 44.6914 46.89C48.7218 45.4336 51.2958 41.3355 51.8038 38.118C52.3457 38.0729 53.057 37.3165 53.8247 34.5957C54.8746 30.8814 53.7569 30.3282 52.8086 30.4185C52.9892 29.9105 53.1247 29.3912 53.215 28.8945C54.8181 19.2645 50.0765 18.9371 50.0765 18.9371C50.0765 18.9371 49.2863 17.4243 47.2203 16.284C45.8317 15.4599 43.9012 14.8277 41.361 15.0422C40.5369 15.0761 39.7579 15.2454 39.0241 15.4825C38.0871 15.7986 37.2291 16.2615 36.4501 16.8034C35.5018 17.4017 34.5986 18.1468 33.8083 18.9935C32.5552 20.2805 31.4375 21.9401 30.9521 24.0061C30.5456 25.5528 30.636 27.1672 30.9746 28.9057C31.065 29.4138 31.2004 29.9218 31.3811 30.4298C30.4328 30.3395 29.3151 30.8927 30.365 34.607C31.144 37.3165 31.8552 38.0729 32.3971 38.118Z" fill="url(#paint0_linear_527_18917)"/>
<path d="M60.7239 50.751C54.9549 49.2834 50.2698 45.9868 50.2698 45.9868L46.612 57.5586L45.9233 59.7375L45.912 59.7036L45.3137 61.5551L43.3832 56.0797C48.1248 49.464 42.4235 49.5317 42.1074 49.543C41.7913 49.5317 36.0901 49.464 40.8317 56.0797L38.9012 61.5551L38.3029 59.7036L38.2916 59.7375L37.6029 57.5586L33.9338 45.9868C33.9338 45.9868 29.2487 49.2834 23.4797 50.751C19.1784 51.8461 18.9752 56.8135 19.1445 59.2633C19.1445 59.2633 19.3929 62.5937 19.6413 64.0614C19.6413 64.0614 28.0407 69.5142 42.1074 69.5255C56.1742 69.5255 64.5736 64.0614 64.5736 64.0614C64.822 62.5937 65.0704 59.2633 65.0704 59.2633C65.2284 56.8135 65.0252 51.8461 60.7239 50.751Z" fill="url(#paint1_linear_527_18917)"/>
<defs>
<linearGradient id="paint0_linear_527_18917" x1="42.0948" y1="15" x2="42.0948" y2="65" gradientUnits="userSpaceOnUse">
<stop stop-color="#5E46D1"/>
<stop offset="1" stop-color="#9068F4" stop-opacity="0.19"/>
</linearGradient>
<linearGradient id="paint1_linear_527_18917" x1="42.1055" y1="45.9868" x2="42.1055" y2="69.5255" gradientUnits="userSpaceOnUse">
<stop stop-color="#5E46D1"/>
<stop offset="1" stop-color="#9068F4" stop-opacity="0.19"/>
</linearGradient>
</defs>
</svg>
