<svg width="70" height="70" viewBox="0 0 70 70" fill="none" xmlns="http://www.w3.org/2000/svg">
<path d="M59.894 37.3672H54.4805C55.0323 38.8779 55.3337 40.5083 55.3337 42.2076V62.6676C55.3337 63.3761 55.2104 64.0561 54.9861 64.6886H63.9358C67.279 64.6886 69.9988 61.9687 69.9988 58.6256V47.472C69.9989 41.9002 65.4658 37.3672 59.894 37.3672Z" fill="#8661ED"/>
<path d="M14.6652 42.2076C14.6652 40.5082 14.9666 38.8779 15.5184 37.3672H10.1049C4.53306 37.3672 0 41.9002 0 47.4721V58.6258C0 61.9688 2.71975 64.6887 6.06294 64.6887H15.0128C14.7885 64.056 14.6652 63.3761 14.6652 62.6676V42.2076Z" fill="#B1D952"/>
<path d="M41.188 32.1055H28.8119C23.2401 32.1055 18.707 36.6385 18.707 42.2104V62.6704C18.707 63.7864 19.6118 64.6914 20.728 64.6914H49.2719C50.3881 64.6914 51.2929 63.7865 51.2929 62.6704V42.2104C51.2929 36.6385 46.7599 32.1055 41.188 32.1055Z" fill="#7657E2"/>
<path d="M35.0001 5.30859C28.2992 5.30859 22.8477 10.7601 22.8477 17.4611C22.8477 22.0064 25.3563 25.976 29.0611 28.0601C30.8184 29.0486 32.8443 29.6135 35.0001 29.6135C37.1558 29.6135 39.1818 29.0486 40.939 28.0601C44.6439 25.976 47.1525 22.0062 47.1525 17.4611C47.1525 10.7603 41.7009 5.30859 35.0001 5.30859Z" fill="#7657E2"/>
<path d="M13.6626 16.6367C8.65118 16.6367 4.57422 20.7137 4.57422 25.7251C4.57422 30.7366 8.65118 34.8135 13.6626 34.8135C14.9338 34.8135 16.1443 34.5502 17.244 34.0769C19.1452 33.2583 20.7128 31.8094 21.6828 29.9944C22.3637 28.7206 22.751 27.2674 22.751 25.7251C22.751 20.7138 18.6741 16.6367 13.6626 16.6367Z" fill="#B1D952"/>
<path d="M56.3384 16.6367C51.327 16.6367 47.25 20.7137 47.25 25.7251C47.25 27.2676 47.6373 28.7208 48.3182 29.9944C49.2882 31.8095 50.8558 33.2585 52.757 34.0769C53.8567 34.5502 55.0672 34.8135 56.3384 34.8135C61.3498 34.8135 65.4268 30.7366 65.4268 25.7251C65.4268 20.7137 61.3498 16.6367 56.3384 16.6367Z" fill="#8661ED"/>
</svg>
