<svg width="85" height="84" viewBox="0 0 85 84" fill="none" xmlns="http://www.w3.org/2000/svg">
<ellipse cx="42.409" cy="42" rx="42.1824" ry="42" fill="#FFF7ED"/>
<path d="M52.4527 48.3942C52.1334 46.2246 51.047 44.2414 49.3907 42.8042C47.7343 41.3671 45.6177 40.5712 43.4248 40.561H41.3811C39.1882 40.5712 37.0715 41.3671 35.4152 42.8042C33.7588 44.2414 32.6725 46.2246 32.3532 48.3942L31.3736 55.2438C31.3423 55.4652 31.3629 55.6909 31.4339 55.9029C31.505 56.115 31.6244 56.3076 31.7827 56.4655C32.1669 56.8496 34.5237 58.8089 42.4049 58.8089C50.286 58.8089 52.6371 56.8573 53.027 56.4655C53.1853 56.3076 53.3047 56.115 53.3758 55.9029C53.4468 55.6909 53.4674 55.4652 53.4362 55.2438L52.4527 48.3942Z" fill="url(#paint0_linear_527_18891)"/>
<path d="M33.8759 41.6177C32.0195 43.3291 30.8116 45.6295 30.4568 48.1293L29.7461 53.0466C24.0413 53.0082 22.3125 50.9337 22.0244 50.5112C21.913 50.3576 21.8336 50.1834 21.7907 49.9986C21.7478 49.8138 21.7424 49.6224 21.7747 49.4355L22.1973 47.0537C22.4175 45.8089 22.9345 44.6355 23.7047 43.6331C24.4749 42.6307 25.4754 41.8288 26.6214 41.2953C27.7675 40.7619 29.0253 40.5127 30.2881 40.5688C31.551 40.6249 32.7817 40.9847 33.8759 41.6177Z" fill="url(#paint1_linear_527_18891)"/>
<path d="M63.0309 49.4355C63.0632 49.6224 63.0578 49.8138 63.0149 49.9986C62.972 50.1834 62.8926 50.3576 62.7812 50.5112C62.4931 50.9337 60.7643 53.0082 55.0595 53.0466L54.3488 48.1293C53.994 45.6295 52.7861 43.3291 50.9297 41.6177C52.0239 40.9847 53.2546 40.6249 54.5175 40.5688C55.7803 40.5127 57.0381 40.7619 58.1842 41.2953C59.3302 41.8288 60.3307 42.6307 61.1009 43.6331C61.871 44.6355 62.3881 45.8089 62.6083 47.0537L63.0309 49.4355Z" fill="url(#paint2_linear_527_18891)"/>
<path d="M34.1985 37.3912C33.715 38.077 33.0731 38.6358 32.3274 39.0204C31.5817 39.405 30.7541 39.6039 29.9151 39.6002C29.0781 39.6002 28.2531 39.4013 27.5081 39.0199C26.763 38.6385 26.1193 38.0855 25.6299 37.4065C25.1405 36.7275 24.8195 35.9419 24.6932 35.1145C24.567 34.2871 24.6392 33.4415 24.9039 32.6475C25.1686 31.8535 25.6181 31.1337 26.2156 30.5475C26.813 29.9613 27.5412 29.5255 28.3401 29.2759C29.139 29.0264 29.9858 28.9702 30.8106 29.1121C31.6355 29.254 32.4149 29.5899 33.0844 30.0921C32.8919 30.8453 32.795 31.6197 32.7963 32.3971C32.7978 34.1588 33.2828 35.8862 34.1985 37.3912Z" fill="url(#paint3_linear_527_18891)"/>
<path d="M60.1712 34.3179C60.1717 35.0117 60.0354 35.6988 59.7701 36.34C59.5048 36.9811 59.1158 37.5636 58.6252 38.0542C58.1346 38.5448 57.552 38.9338 56.9109 39.1991C56.2698 39.4644 55.5827 39.6007 54.8889 39.6002C54.0499 39.6039 53.2223 39.405 52.4766 39.0204C51.7309 38.6359 51.089 38.077 50.6055 37.3912C51.5212 35.8862 52.0062 34.1588 52.0077 32.3971C52.0089 31.6197 51.9121 30.8453 51.7195 30.0921C52.5043 29.5035 53.4375 29.1451 54.4145 29.057C55.3915 28.9689 56.3738 29.1546 57.2512 29.5933C58.1286 30.032 58.8665 30.7064 59.3823 31.5409C59.898 32.3753 60.1712 33.3369 60.1712 34.3179Z" fill="url(#paint4_linear_527_18891)"/>
<path d="M42.4023 39.6005C46.3805 39.6005 49.6054 36.3756 49.6054 32.3974C49.6054 28.4193 46.3805 25.1943 42.4023 25.1943C38.4242 25.1943 35.1992 28.4193 35.1992 32.3974C35.1992 36.3756 38.4242 39.6005 42.4023 39.6005Z" fill="url(#paint5_linear_527_18891)"/>
<defs>
<linearGradient id="paint0_linear_527_18891" x1="42.4009" y1="32.9821" x2="42.4049" y2="58.8089" gradientUnits="userSpaceOnUse">
<stop stop-color="#F9A000"/>
<stop offset="1" stop-color="#F9A000" stop-opacity="0.1"/>
</linearGradient>
<linearGradient id="paint1_linear_527_18891" x1="27.372" y1="33.9843" x2="27.8149" y2="53.0466" gradientUnits="userSpaceOnUse">
<stop stop-color="#F9A000"/>
<stop offset="1" stop-color="#F9A000" stop-opacity="0.1"/>
</linearGradient>
<linearGradient id="paint2_linear_527_18891" x1="55.4297" y1="32.9821" x2="56.9907" y2="53.0466" gradientUnits="userSpaceOnUse">
<stop stop-color="#F9A000"/>
<stop offset="1" stop-color="#F9A000" stop-opacity="0.1"/>
</linearGradient>
<linearGradient id="paint3_linear_527_18891" x1="29.4157" y1="29.0356" x2="29.3721" y2="58.0359" gradientUnits="userSpaceOnUse">
<stop stop-color="#F9A000"/>
<stop offset="1" stop-color="#F9A000" stop-opacity="0.1"/>
</linearGradient>
<linearGradient id="paint4_linear_527_18891" x1="55.3883" y1="29.0356" x2="53.9286" y2="57.0338" gradientUnits="userSpaceOnUse">
<stop stop-color="#F9A000"/>
<stop offset="1" stop-color="#F9A000" stop-opacity="0.1"/>
</linearGradient>
<linearGradient id="paint5_linear_527_18891" x1="42.4023" y1="25.1943" x2="42.4023" y2="59.0386" gradientUnits="userSpaceOnUse">
<stop stop-color="#F9A000"/>
<stop offset="1" stop-color="#F9A000" stop-opacity="0.1"/>
</linearGradient>
</defs>
</svg>
