<svg width="70" height="70" viewBox="0 0 70 70" fill="none" xmlns="http://www.w3.org/2000/svg">
<g clip-path="url(#clip0_527_18781)">
<path d="M35 8.20312C36.1333 8.20312 37.0508 7.28561 37.0508 6.15234V2.05078C37.0508 0.917511 36.1333 0 35 0C33.8667 0 32.9492 0.917511 32.9492 2.05078V6.15234C32.9492 7.28561 33.8667 8.20312 35 8.20312Z" fill="#B1D952"/>
<path d="M44.6531 11.7039L48.7547 7.60231C49.5557 6.80122 49.5557 5.50346 48.7547 4.70238C47.9536 3.90129 46.6558 3.90129 45.8547 4.70238L41.7532 8.80394C40.9521 9.60503 40.9521 10.9028 41.7532 11.7039C42.5542 12.505 43.852 12.505 44.6531 11.7039Z" fill="#B1D952"/>
<path d="M25.3469 11.7039C26.148 12.505 27.4458 12.505 28.2468 11.7039C29.0479 10.9028 29.0479 9.60503 28.2468 8.80394L24.1453 4.70238C23.3442 3.90129 22.0464 3.90129 21.2453 4.70238C20.4443 5.50346 20.4443 6.80122 21.2453 7.60231L25.3469 11.7039Z" fill="#B1D952"/>
<path d="M18.457 28.9844C18.457 24.4604 14.7779 20.7812 10.2539 20.7812C5.7299 20.7812 2.05078 24.4604 2.05078 28.9844C2.05078 33.5084 5.7299 37.1875 10.2539 37.1875C14.7779 37.1875 18.457 33.5084 18.457 28.9844Z" fill="#8661ED"/>
<path d="M35 16.543C31.6077 16.543 28.8477 19.303 28.8477 22.6953C28.8477 30.61 22.2702 37.1875 14.3555 37.1875H10.2539C4.60037 37.1875 0 41.7879 0 47.4414V67.9492C0 69.0825 0.917511 70 2.05078 70H18.457C19.5887 70 20.4806 69.0825 20.4806 67.9514L20.4923 48.7733C32.4686 45.9514 41.1523 35.1682 41.1523 22.6953C41.1523 19.303 38.3923 16.543 35 16.543Z" fill="#8661ED"/>
<path d="M67.9492 28.9844C67.9492 24.4604 64.2701 20.7812 59.7461 20.7812C55.2221 20.7812 51.543 24.4604 51.543 28.9844C51.543 33.5084 55.2221 37.1875 59.7461 37.1875C64.2701 37.1875 67.9492 33.5084 67.9492 28.9844Z" fill="#5C45D0"/>
<path d="M59.7479 37.1865H55.6463C50.9306 37.1865 46.6378 34.7336 44.0193 31.2109C42.8193 35.4449 40.729 39.2875 37.9375 42.5778C41.2075 45.4644 45.2482 47.7555 49.5089 48.7702L49.5212 67.9504C49.5212 69.0815 50.4131 69.999 51.5448 69.999H67.951C69.0843 69.999 70.0018 69.0815 70.0018 67.9482V47.4404C70.0018 41.7869 65.4014 37.1865 59.7479 37.1865Z" fill="#5C45D0"/>
</g>
<defs>
<clipPath id="clip0_527_18781">
<rect width="70" height="70" fill="white"/>
</clipPath>
</defs>
</svg>
