<svg width="60" height="70" viewBox="0 0 60 70" fill="none" xmlns="http://www.w3.org/2000/svg">
<path d="M60 12.7604V32.3264C60 50.0694 47.6763 65.625 30 70C12.3237 65.625 0 50.0694 0 32.3264V12.7604C13.8174 11.1806 21.7842 6.07639 30 0C38.2158 6.07639 46.1826 11.1806 60 12.7604Z" fill="#8661ED"/>
<path d="M30.0004 62.2205C16.6809 58.0885 7.59375 46.0573 7.59375 32.3247V19.0781C16.9299 17.1337 23.7763 13.3663 30.0004 9.23438C36.3489 13.4878 43.0709 17.1337 52.407 19.0781V32.3247C52.407 46.0573 43.3199 58.0885 30.0004 62.2205Z" fill="#5C45D0"/>
<path d="M25.0236 46.9093L17.5547 39.7392L21.4136 36.0933L25.0236 39.6176L38.592 26.3711L42.451 30.0169L25.0236 46.9093Z" fill="white"/>
</svg>
