<svg width="70" height="70" viewBox="0 0 70 70" fill="none" xmlns="http://www.w3.org/2000/svg">
<path fill-rule="evenodd" clip-rule="evenodd" d="M45.1458 66.3529H11.6654C9.53911 66.3529 7.49745 65.507 5.99245 64.0049C4.49036 62.5 3.64453 60.4583 3.64453 58.332V11.6654C3.64453 9.53911 4.49036 7.49745 5.99245 5.99245C7.49745 4.49036 9.53911 3.64453 11.6654 3.64453H36.7079C38.0612 3.64453 39.3591 4.1812 40.3158 5.14078L53.1899 18.0149C54.1495 18.9716 54.6862 20.2695 54.6862 21.6229V33.7299C52.6824 33.4354 50.6437 33.4849 48.6545 33.8758C46.9774 34.2024 45.5774 35.3487 44.9212 36.9266L44.4254 38.1224C43.772 38.0379 43.1391 37.9562 43.1391 37.9562C41.4445 37.7345 39.7529 38.3733 38.6299 39.6624C37.1104 41.4066 35.9408 43.4279 35.1912 45.6183C34.637 47.2341 34.9287 49.0191 35.967 50.3754L36.7574 51.4049C36.3579 51.927 35.967 52.4345 35.967 52.4345C34.9287 53.7908 34.637 55.5758 35.1912 57.1916C35.9408 59.382 37.1104 61.4033 38.6299 63.1474C39.7529 64.4366 41.4445 65.0754 43.1391 64.8537L44.4254 64.6875C44.6762 65.2941 44.9212 65.8833 44.9212 65.8833C44.9883 66.0437 45.0641 66.2012 45.1458 66.3529ZM16.0404 43.0195H29.1654C30.3729 43.0195 31.3529 42.0395 31.3529 40.832C31.3529 39.6245 30.3729 38.6445 29.1654 38.6445H16.0404C14.8329 38.6445 13.8529 39.6245 13.8529 40.832C13.8529 42.0395 14.8329 43.0195 16.0404 43.0195ZM36.457 8.7487V18.957C36.457 20.567 37.7637 21.8737 39.3737 21.8737H49.582L36.457 8.7487ZM16.0404 32.8112H39.3737C40.5812 32.8112 41.5612 31.8312 41.5612 30.6237C41.5612 29.4162 40.5812 28.4362 39.3737 28.4362H16.0404C14.8329 28.4362 13.8529 29.4162 13.8529 30.6237C13.8529 31.8312 14.8329 32.8112 16.0404 32.8112ZM16.0404 53.2279H29.1654C30.3729 53.2279 31.3529 52.2479 31.3529 51.0404C31.3529 49.8329 30.3729 48.8529 29.1654 48.8529H16.0404C14.8329 48.8529 13.8529 49.8329 13.8529 51.0404C13.8529 52.2479 14.8329 53.2279 16.0404 53.2279Z" fill="#7657E2"/>
<path fill-rule="evenodd" clip-rule="evenodd" d="M56.5693 38.0437C56.5693 38.0437 57.6048 40.5374 57.6018 40.5374C57.9956 40.7358 58.3777 40.9574 58.7481 41.1966L61.4256 40.8466C62.1489 40.7533 62.8752 41.0274 63.3564 41.5787C64.6281 43.037 65.6052 44.7316 66.2352 46.5633C66.4714 47.2545 66.346 48.0216 65.8998 48.602C65.8998 48.602 64.2606 50.7458 64.2606 50.7429C64.2839 51.1833 64.2839 51.6266 64.2606 52.0641L65.8998 54.2079C66.346 54.7883 66.4714 55.5554 66.2352 56.2466C65.6052 58.0783 64.6281 59.7729 63.3564 61.2312C62.8752 61.7824 62.1489 62.0566 61.4256 61.9633C61.4256 61.9633 58.7481 61.6133 58.751 61.6104C58.3806 61.8524 57.9956 62.0741 57.6048 62.2724L56.5693 64.7662C56.2893 65.4429 55.6885 65.9329 54.971 66.0729C53.0693 66.4462 51.1152 66.4462 49.2135 66.0729C48.496 65.9329 47.8952 65.4429 47.6152 64.7662C47.6152 64.7662 46.5798 62.2724 46.5827 62.2724C46.1889 62.0741 45.8039 61.8524 45.4364 61.6133L42.7589 61.9633C42.0327 62.0566 41.3093 61.7824 40.8281 61.2312C39.5535 59.7729 38.5764 58.0783 37.9493 56.2466C37.7131 55.5554 37.8385 54.7883 38.2818 54.2079C38.2818 54.2079 39.9239 52.0641 39.9239 52.067C39.9006 51.6266 39.9006 51.1833 39.9239 50.7458L38.2818 48.602C37.8385 48.0216 37.7131 47.2545 37.9493 46.5633C38.5764 44.7316 39.5535 43.037 40.8281 41.5787C41.3093 41.0274 42.0327 40.7533 42.7589 40.8466C42.7589 40.8466 45.4364 41.1966 45.4335 41.1995C45.8039 40.9574 46.186 40.7358 46.5798 40.5374L47.6152 38.0437C47.8952 37.367 48.496 36.877 49.2135 36.737C51.1152 36.3637 53.0693 36.3637 54.971 36.737C55.6885 36.877 56.2893 37.367 56.5693 38.0437ZM52.0923 47.0299C49.6773 47.0299 47.7173 48.9899 47.7173 51.405C47.7173 53.82 49.6773 55.7799 52.0923 55.7799C54.5073 55.7799 56.4673 53.82 56.4673 51.405C56.4673 48.9899 54.5073 47.0299 52.0923 47.0299Z" fill="#B1D952"/>
</svg>
