<?xml version="1.0" encoding="utf-8"?>
<!-- Generator: Adobe Illustrator 28.2.0, SVG Export Plug-In . SVG Version: 6.00 Build 0)  -->
<svg version="1.1" id="Layer_1" xmlns="http://www.w3.org/2000/svg" xmlns:xlink="http://www.w3.org/1999/xlink" x="0px" y="0px"
	 viewBox="0 0 1000 1000" style="enable-background:new 0 0 1000 1000;" xml:space="preserve">
<style type="text/css">
	.st0{fill:#FFFFFF;}
	.st1{fill:url(#SVGID_1_);}
	.st2{fill:url(#SVGID_00000096750712668760321560000002093523881677109430_);}
	.st3{fill:url(#SVGID_00000112621453681302504320000007081897129291307147_);}
	.st4{fill:url(#SVGID_00000065769324603079128670000016053298626934618554_);}
	.st5{fill:url(#SVGID_00000018935134542035078190000014666636838438275517_);}
	.st6{fill:url(#SVGID_00000099638892089358969360000017327924385225172910_);}
	.st7{fill:url(#SVGID_00000018931564637709940400000013450060654172457641_);}
	.st8{fill:url(#SVGID_00000018203469699720983820000018094382616216894367_);}
	.st9{fill:url(#SVGID_00000036944717120881538290000015215570456397946505_);}
	.st10{fill:url(#SVGID_00000065763106710160385300000006196464507448258184_);}
	.st11{fill:#473ACB;}
	.st12{fill:#686868;}
	.st13{fill:url(#SVGID_00000130622038632321986530000007427655422228007085_);}
	.st14{fill:url(#SVGID_00000163068566551178537230000015886813933028411036_);}
	.st15{fill:url(#SVGID_00000095324082103451700530000003891205946299398054_);}
	.st16{fill:url(#SVGID_00000127013067415157216270000017401772706016074415_);}
	.st17{fill:url(#SVGID_00000013171103744568950590000007673451600316309400_);}
</style>
<g>
	<g>
		<path class="st0" d="M799-1728.8c0,4.3-2.3,6.3-6.5,6.7c-0.9,0.1-1.8,0-2.7,0c-5.7,0-6,0.5-4.2,5.7c0.2,0.5,0.3,1,0.5,1.5
			c1.7,5,1.2,6.3-3.7,8.5c0.9,1.8,1.9,3.2,2.3,4.8c0.3,1.4,0.5,3.7-0.3,4.3c-4.2,3.6-3.9,8.4-3.6,13c0.6,9.5-6.6,14.3-14.2,14.2
			c-0.6,0-1.2,0-1.8,0h-48.7c0,0-1.8-13.8,4.6-24.5c0,0,0,0,0-0.1c1.8-3.5,4.3-6.8,7.3-9.9c6.2-6.5,11.9-13.4,17.3-20.5
			c2-2.6,3.4-6.3,3.5-9.6c0.3-17.5,0.2-35.1,0.1-52.6c0-5-2.6-7.5-8.3-7.5l-56.1,0c-6.1-0.1-7.9,1.6-7.9,7.8v10.7c0,34,0,68,0,102
			v4.3h-20.6v-82.2c0-8,0-16.1,0-24.1c0-8.7,0-17.5,0-26.2c0-11.7,8.4-20.7,20.2-20.8c20-0.3,40.1-0.9,60,0.2
			c22.5,1.2,39.2,16.8,44.7,39.8c1.3,5.6,1.6,11.5,1.6,17.3c0,5,1.1,9.5,3.7,13.7c3.6,5.6,7.3,11.1,10.6,16.8
			C798.2-1733.7,799-1731.1,799-1728.8z"/>
		<path class="st0" d="M656.2-1776.4c0,8,0,16.1,0,24.1L656.2-1776.4L656.2-1776.4z"/>
		<path class="st0" d="M730-1767.8h-36.9c-2.9,0-5.2-2.3-5.2-5.2l0,0c0-2.9,2.3-5.2,5.2-5.2H730c2.9,0,5.2,2.3,5.2,5.2l0,0
			C735.2-1770.1,732.9-1767.8,730-1767.8z"/>
		<path class="st0" d="M723.7-1743.4h-30.7c-2.9,0-5.2-2.3-5.2-5.2l0,0c0-2.9,2.3-5.2,5.2-5.2h30.7c2.9,0,5.2,2.3,5.2,5.2l0,0
			C729-1745.7,726.6-1743.4,723.7-1743.4z"/>
		<path class="st0" d="M714.3-1719h-21.2c-2.9,0-5.2-2.3-5.2-5.2l0,0c0-2.9,2.3-5.2,5.2-5.2h21.2c2.9,0,5.2,2.3,5.2,5.2l0,0
			C719.5-1721.3,717.2-1719,714.3-1719z"/>
	</g>
	<g>
		<g>
			<path class="st0" d="M237.5-1767.5c0,5.5-0.9,10.6-2.8,15.2c-1.9,4.6-4.6,8.7-8,12.1s-7.6,6-12.5,7.9c-4.9,1.9-10.2,2.8-16.2,2.8
				h-29.6v-76.1H198c5.9,0,11.3,1,16.2,2.9s9,4.6,12.5,7.9c3.4,3.4,6.1,7.4,8,12C236.5-1778,237.5-1773,237.5-1767.5z M219.4-1767.5
				c0-3.8-0.5-7.2-1.5-10.2c-1-3-2.4-5.6-4.2-7.7c-1.8-2.1-4.1-3.7-6.7-4.9c-2.6-1.1-5.7-1.7-9-1.7h-11.8v48.9H198
				c3.4,0,6.4-0.6,9-1.7c2.6-1.1,4.9-2.8,6.7-4.9c1.8-2.1,3.2-4.7,4.2-7.7C218.9-1760.3,219.4-1763.7,219.4-1767.5z"/>
			<path class="st0" d="M243.6-1776.1c3.3-2.9,6.9-5,10.9-6.5c4-1.4,8.3-2.1,12.8-2.1c3.3,0,6.2,0.5,8.9,1.6
				c2.6,1.1,4.9,2.5,6.7,4.4c1.8,1.9,3.2,4.2,4.2,6.8c1,2.6,1.5,5.5,1.5,8.6v33.8h-7.4c-1.5,0-2.7-0.2-3.5-0.6
				c-0.8-0.4-1.4-1.3-2-2.6l-1.1-3c-1.4,1.1-2.7,2.2-3.9,3c-1.3,0.9-2.6,1.6-3.9,2.2c-1.3,0.6-2.8,1.1-4.3,1.4s-3.2,0.4-5,0.4
				c-2.5,0-4.7-0.3-6.7-1c-2-0.6-3.7-1.6-5.1-2.8c-1.4-1.3-2.5-2.8-3.3-4.7c-0.8-1.9-1.1-4-1.1-6.5c0-2,0.5-3.9,1.5-5.9
				c1-2,2.7-3.8,5.1-5.5c2.4-1.7,5.6-3,9.7-4.2c4.1-1.1,9.2-1.7,15.4-1.9v-2.3c0-3.2-0.7-5.5-2-6.9s-3.2-2.1-5.6-2.1
				c-1.9,0-3.5,0.2-4.7,0.6c-1.2,0.4-2.3,0.9-3.3,1.4c-1,0.5-1.9,1-2.8,1.4c-0.9,0.4-2,0.6-3.2,0.6c-1.1,0-2.1-0.3-2.8-0.8
				c-0.8-0.6-1.4-1.2-1.9-2L243.6-1776.1z M272.8-1751.5c-3.2,0.1-5.9,0.4-8,0.8s-3.7,0.9-5,1.6c-1.2,0.6-2.1,1.3-2.5,2.1
				c-0.5,0.8-0.7,1.7-0.7,2.6c0,1.8,0.5,3.1,1.5,3.9c1,0.7,2.5,1.1,4.4,1.1c2.1,0,3.9-0.4,5.5-1.1s3.2-1.9,4.8-3.6V-1751.5z"/>
			<path class="st0" d="M333.3-1771.7c-0.4,0.7-0.9,1.1-1.3,1.4c-0.5,0.3-1.1,0.4-1.8,0.4c-0.8,0-1.5-0.2-2.3-0.5
				c-0.8-0.3-1.6-0.7-2.5-1.1c-0.9-0.4-1.9-0.7-3-1.1c-1.1-0.3-2.4-0.5-3.8-0.5c-2.1,0-3.6,0.4-4.7,1.2c-1.1,0.8-1.6,1.9-1.6,3.3
				c0,1,0.4,1.8,1.1,2.5c0.7,0.7,1.7,1.2,2.8,1.8c1.2,0.5,2.5,1,4,1.4c1.5,0.5,3,1,4.6,1.5c1.6,0.6,3.1,1.2,4.6,2
				c1.5,0.7,2.8,1.7,4,2.8c1.2,1.1,2.1,2.4,2.8,4c0.7,1.6,1.1,3.4,1.1,5.6c0,2.7-0.5,5.2-1.5,7.4c-1,2.3-2.4,4.2-4.4,5.9
				s-4.3,2.9-7.2,3.8c-2.8,0.9-6.1,1.4-9.8,1.4c-1.8,0-3.7-0.2-5.5-0.5c-1.8-0.3-3.6-0.8-5.4-1.4c-1.7-0.6-3.3-1.3-4.8-2.1
				s-2.7-1.7-3.8-2.6l3.8-6c0.4-0.7,0.9-1.2,1.6-1.6c0.6-0.4,1.5-0.6,2.5-0.6c0.9,0,1.8,0.2,2.5,0.6c0.7,0.4,1.6,0.9,2.4,1.4
				c0.9,0.5,1.9,0.9,3.1,1.4c1.2,0.4,2.6,0.6,4.4,0.6c1.3,0,2.3-0.1,3.2-0.4c0.9-0.3,1.6-0.6,2.1-1.1c0.5-0.5,0.9-1,1.1-1.5
				c0.2-0.6,0.4-1.1,0.4-1.7c0-1.1-0.4-2-1.1-2.7c-0.7-0.7-1.7-1.3-2.9-1.8c-1.2-0.5-2.5-1-4-1.4c-1.5-0.4-3.1-0.9-4.6-1.5
				c-1.6-0.6-3.1-1.2-4.6-2c-1.5-0.8-2.9-1.8-4-3c-1.2-1.2-2.1-2.7-2.9-4.4c-0.7-1.7-1.1-3.8-1.1-6.3c0-2.3,0.4-4.5,1.3-6.6
				c0.9-2.1,2.2-3.9,4-5.5c1.8-1.6,4-2.8,6.7-3.7c2.7-0.9,5.8-1.4,9.4-1.4c1.9,0,3.8,0.2,5.7,0.5c1.8,0.3,3.5,0.8,5.1,1.5
				c1.6,0.6,3.1,1.4,4.4,2.2c1.3,0.9,2.5,1.8,3.5,2.8L333.3-1771.7z"/>
			<path class="st0" d="M361.6-1778.8c1.9-1.7,4.1-3,6.3-4c2.3-1,5-1.5,8.2-1.5c3,0,5.6,0.5,7.9,1.5c2.3,1,4.2,2.5,5.8,4.3
				c1.6,1.8,2.8,4,3.6,6.5c0.8,2.5,1.2,5.3,1.2,8.2v34.4h-16.2v-34.4c0-2.6-0.6-4.7-1.8-6.2c-1.2-1.5-3-2.2-5.4-2.2
				c-1.8,0-3.4,0.4-5,1.1c-1.5,0.7-3.1,1.8-4.5,3.1v38.7h-16.2v-78.2h16.2V-1778.8z"/>
			<path class="st0" d="M474.8-1767.5c0,5.5-0.9,10.6-2.8,15.2c-1.9,4.6-4.6,8.7-8,12.1s-7.6,6-12.5,7.9c-4.9,1.9-10.2,2.8-16.2,2.8
				h-29.6v-76.1h29.6c5.9,0,11.3,1,16.2,2.9s9,4.6,12.5,7.9c3.4,3.4,6.1,7.4,8,12C473.8-1778,474.8-1773,474.8-1767.5z
				 M456.7-1767.5c0-3.8-0.5-7.2-1.5-10.2c-1-3-2.4-5.6-4.2-7.7c-1.8-2.1-4.1-3.7-6.7-4.9c-2.6-1.1-5.7-1.7-9-1.7h-11.8v48.9h11.8
				c3.4,0,6.4-0.6,9-1.7c2.6-1.1,4.9-2.8,6.7-4.9c1.8-2.1,3.2-4.7,4.2-7.7C456.2-1760.3,456.7-1763.7,456.7-1767.5z"/>
			<path class="st0" d="M507.7-1784.4c4.1,0,7.9,0.6,11.2,1.9c3.4,1.3,6.3,3.1,8.7,5.5c2.4,2.4,4.3,5.3,5.6,8.7
				c1.3,3.4,2,7.3,2,11.6c0,4.3-0.7,8.2-2,11.7c-1.3,3.5-3.2,6.4-5.6,8.8c-2.4,2.4-5.3,4.3-8.7,5.6s-7.1,2-11.2,2
				c-4.1,0-7.9-0.7-11.3-2c-3.4-1.3-6.3-3.2-8.8-5.6c-2.5-2.4-4.4-5.4-5.7-8.8c-1.3-3.5-2-7.4-2-11.7c0-4.3,0.7-8.1,2-11.6
				c1.3-3.4,3.2-6.3,5.7-8.7c2.5-2.4,5.4-4.2,8.8-5.5C499.7-1783.8,503.5-1784.4,507.7-1784.4z M507.7-1740.6c3.7,0,6.5-1.3,8.2-3.9
				c1.8-2.6,2.6-6.6,2.6-12c0-5.4-0.9-9.3-2.6-12c-1.8-2.6-4.5-3.9-8.2-3.9c-3.8,0-6.6,1.3-8.4,3.9c-1.8,2.6-2.7,6.6-2.7,12
				c0,5.4,0.9,9.4,2.7,12C501-1741.9,503.8-1740.6,507.7-1740.6z"/>
			<path class="st0" d="M592.7-1729.4h-15.6c-1.1,0-2.1-0.3-2.8-0.8c-0.7-0.6-1.3-1.2-1.7-2l-9.7-16.6c-0.2,0.6-0.4,1.1-0.6,1.7
				c-0.2,0.5-0.5,1-0.8,1.5l-7.9,13.5c-0.5,0.7-1.1,1.3-1.7,1.9s-1.5,0.9-2.6,0.9h-14.4l18.2-28l-17.4-26.2h15.6
				c1.1,0,2,0.1,2.5,0.4c0.5,0.3,1,0.8,1.4,1.5l9.7,16c0.2-0.6,0.5-1.2,0.8-1.9c0.3-0.6,0.7-1.2,1-1.9l6.9-12.1
				c0.5-0.8,1-1.3,1.5-1.7c0.5-0.3,1.2-0.5,2-0.5H592l-17.4,25.4L592.7-1729.4z"/>
			<path class="st0" d="M632.1-1771.7c-0.4,0.7-0.9,1.1-1.3,1.4c-0.5,0.3-1.1,0.4-1.8,0.4c-0.8,0-1.5-0.2-2.3-0.5
				c-0.8-0.3-1.6-0.7-2.5-1.1c-0.9-0.4-1.9-0.7-3-1.1c-1.1-0.3-2.4-0.5-3.8-0.5c-2.1,0-3.6,0.4-4.7,1.2c-1.1,0.8-1.6,1.9-1.6,3.3
				c0,1,0.4,1.8,1.1,2.5c0.7,0.7,1.7,1.2,2.8,1.8c1.2,0.5,2.5,1,4,1.4c1.5,0.5,3,1,4.6,1.5c1.6,0.6,3.1,1.2,4.6,2
				c1.5,0.7,2.8,1.7,4,2.8c1.2,1.1,2.1,2.4,2.8,4s1.1,3.4,1.1,5.6c0,2.7-0.5,5.2-1.5,7.4c-1,2.3-2.4,4.2-4.4,5.9s-4.3,2.9-7.2,3.8
				c-2.8,0.9-6.1,1.4-9.8,1.4c-1.8,0-3.7-0.2-5.5-0.5c-1.8-0.3-3.6-0.8-5.4-1.4c-1.7-0.6-3.3-1.3-4.8-2.1c-1.5-0.8-2.7-1.7-3.8-2.6
				l3.8-6c0.4-0.7,0.9-1.2,1.6-1.6c0.6-0.4,1.5-0.6,2.5-0.6c0.9,0,1.8,0.2,2.5,0.6s1.6,0.9,2.4,1.4s1.9,0.9,3.1,1.4s2.6,0.6,4.4,0.6
				c1.3,0,2.3-0.1,3.2-0.4c0.9-0.3,1.6-0.6,2.1-1.1c0.5-0.5,0.9-1,1.1-1.5c0.2-0.6,0.4-1.1,0.4-1.7c0-1.1-0.4-2-1.1-2.7
				s-1.7-1.3-2.9-1.8c-1.2-0.5-2.5-1-4-1.4c-1.5-0.4-3.1-0.9-4.6-1.5c-1.6-0.6-3.1-1.2-4.6-2c-1.5-0.8-2.9-1.8-4-3
				c-1.2-1.2-2.1-2.7-2.9-4.4c-0.7-1.7-1.1-3.8-1.1-6.3c0-2.3,0.4-4.5,1.3-6.6c0.9-2.1,2.2-3.9,4-5.5c1.8-1.6,4-2.8,6.7-3.7
				c2.7-0.9,5.8-1.4,9.4-1.4c2,0,3.8,0.2,5.7,0.5c1.8,0.3,3.5,0.8,5.1,1.5c1.6,0.6,3.1,1.4,4.4,2.2c1.3,0.9,2.5,1.8,3.5,2.8
				L632.1-1771.7z"/>
		</g>
	</g>
	<g>
		<path class="st0" d="M172.3-1685.8h-3l8.8-23.8h3l8.8,23.8h-3l-7.1-20.1h-0.2L172.3-1685.8z M173.4-1695.1h12.2v2.6h-12.2V-1695.1
			z"/>
		<path class="st0" d="M202.7-1685.8v-23.8h2.9v21.3h11.1v2.6H202.7z"/>
		<path class="st0" d="M228-1685.4c-1.6,0-3-0.4-4.2-1.2c-1.2-0.8-2.2-1.8-2.8-3.2c-0.7-1.4-1-3-1-4.8c0-1.9,0.3-3.5,1-4.9
			c0.7-1.4,1.6-2.5,2.8-3.2c1.2-0.8,2.6-1.2,4.2-1.2s3,0.4,4.2,1.2c1.2,0.8,2.2,1.8,2.8,3.2c0.7,1.4,1,3,1,4.9c0,1.8-0.3,3.5-1,4.8
			c-0.7,1.4-1.6,2.5-2.8,3.2C231-1685.8,229.6-1685.4,228-1685.4z M228-1687.9c1.2,0,2.2-0.3,3-0.9c0.8-0.6,1.4-1.5,1.8-2.5
			c0.4-1,0.6-2.1,0.6-3.3c0-1.2-0.2-2.3-0.6-3.3c-0.4-1-1-1.9-1.8-2.5c-0.8-0.6-1.8-1-3-1c-1.2,0-2.2,0.3-3,1
			c-0.8,0.6-1.4,1.5-1.8,2.5c-0.4,1-0.6,2.1-0.6,3.3c0,1.2,0.2,2.3,0.6,3.3c0.4,1,1,1.9,1.8,2.5
			C225.8-1688.2,226.8-1687.9,228-1687.9z"/>
		<path class="st0" d="M243-1696.6v10.8h-2.7v-17.9h2.7v2.8h0.2c0.4-0.9,1.1-1.6,1.9-2.2s2-0.8,3.3-0.8c1.2,0,2.3,0.2,3.2,0.7
			c0.9,0.5,1.6,1.2,2.1,2.2s0.8,2.3,0.8,3.8v11.4h-2.7v-11.2c0-1.4-0.4-2.5-1.1-3.3c-0.7-0.8-1.7-1.2-3-1.2c-0.9,0-1.7,0.2-2.3,0.6
			c-0.7,0.4-1.2,0.9-1.6,1.7C243.2-1698.5,243-1697.6,243-1696.6z"/>
		<path class="st0" d="M266.7-1678.7c-1.3,0-2.5-0.2-3.4-0.5c-1-0.3-1.7-0.8-2.4-1.3c-0.6-0.5-1.1-1.1-1.5-1.8l2.2-1.5
			c0.2,0.3,0.6,0.7,0.9,1.1c0.4,0.4,0.9,0.8,1.6,1.1c0.7,0.3,1.5,0.5,2.6,0.5c1.4,0,2.6-0.3,3.6-1c0.9-0.7,1.4-1.8,1.4-3.3v-3.6
			h-0.2c-0.2,0.3-0.5,0.7-0.9,1.2c-0.4,0.5-0.9,0.9-1.6,1.3s-1.6,0.6-2.8,0.6c-1.4,0-2.7-0.3-3.9-1s-2-1.7-2.7-3
			c-0.7-1.3-1-2.9-1-4.7c0-1.8,0.3-3.4,1-4.8c0.6-1.4,1.5-2.4,2.7-3.2c1.1-0.7,2.5-1.1,4-1.1c1.2,0,2.1,0.2,2.8,0.6
			c0.7,0.4,1.2,0.8,1.6,1.3c0.4,0.5,0.7,0.9,0.9,1.2h0.3v-2.8h2.7v18.4c0,1.5-0.3,2.8-1,3.8s-1.6,1.7-2.8,2.1
			C269.4-1679,268.1-1678.7,266.7-1678.7z M266.6-1688.5c1.1,0,2-0.3,2.8-0.8c0.8-0.5,1.3-1.2,1.7-2.2c0.4-0.9,0.6-2.1,0.6-3.4
			c0-1.3-0.2-2.4-0.6-3.4c-0.4-1-1-1.8-1.7-2.3s-1.7-0.8-2.8-0.8c-1.2,0-2.1,0.3-2.9,0.9c-0.8,0.6-1.4,1.4-1.7,2.4
			c-0.4,1-0.6,2.1-0.6,3.3c0,1.2,0.2,2.3,0.6,3.3s1,1.7,1.7,2.2C264.5-1688.8,265.4-1688.5,266.6-1688.5z"/>
		<path class="st0" d="M279.8-1685.8v-23.8h2.9v21.3h11.1v2.6H279.8z"/>
		<path class="st0" d="M305.4-1685.4c-1.7,0-3.2-0.4-4.5-1.1c-1.2-0.8-2.2-1.8-2.9-3.2c-0.7-1.4-1-3-1-4.8s0.3-3.4,1-4.8
			c0.7-1.4,1.6-2.5,2.8-3.3c1.2-0.8,2.6-1.2,4.2-1.2c0.9,0,1.9,0.2,2.8,0.5c0.9,0.3,1.7,0.8,2.5,1.5c0.7,0.7,1.3,1.6,1.8,2.8
			c0.4,1.1,0.7,2.5,0.7,4.2v1.2H299v-2.4h11c0-1-0.2-1.9-0.6-2.7c-0.4-0.8-1-1.4-1.7-1.9s-1.6-0.7-2.6-0.7c-1.1,0-2,0.3-2.8,0.8
			c-0.8,0.5-1.4,1.2-1.8,2.1s-0.6,1.8-0.6,2.8v1.6c0,1.4,0.2,2.5,0.7,3.4c0.5,0.9,1.1,1.6,2,2.1s1.8,0.7,2.9,0.7
			c0.7,0,1.4-0.1,2-0.3c0.6-0.2,1.1-0.5,1.5-0.9s0.8-0.9,1-1.6l2.7,0.7c-0.3,0.9-0.7,1.7-1.4,2.4c-0.7,0.7-1.5,1.2-2.4,1.6
			C307.7-1685.6,306.6-1685.4,305.4-1685.4z"/>
		<path class="st0" d="M322.2-1685.4c-1.1,0-2.2-0.2-3.1-0.6s-1.7-1.1-2.2-1.9c-0.5-0.8-0.8-1.8-0.8-3c0-1,0.2-1.9,0.6-2.5
			c0.4-0.6,0.9-1.1,1.6-1.5c0.7-0.4,1.4-0.6,2.2-0.8c0.8-0.2,1.6-0.3,2.5-0.4c1.1-0.1,2-0.2,2.6-0.3c0.7-0.1,1.2-0.2,1.5-0.4
			c0.3-0.2,0.5-0.5,0.5-0.9v-0.1c0-1.1-0.3-2-0.9-2.7c-0.6-0.6-1.6-1-2.8-1c-1.3,0-2.3,0.3-3.1,0.9c-0.7,0.6-1.3,1.2-1.6,1.8
			l-2.6-0.9c0.5-1.1,1.1-1.9,1.9-2.5c0.8-0.6,1.6-1,2.6-1.3c0.9-0.2,1.8-0.4,2.7-0.4c0.6,0,1.2,0.1,2,0.2c0.7,0.1,1.5,0.4,2.2,0.8
			s1.3,1.1,1.8,1.9c0.5,0.8,0.7,2,0.7,3.4v11.8h-2.7v-2.4h-0.1c-0.2,0.4-0.5,0.8-0.9,1.2s-1,0.8-1.7,1.1
			C324.1-1685.5,323.3-1685.4,322.2-1685.4z M322.6-1687.9c1.1,0,2-0.2,2.8-0.6c0.7-0.4,1.3-1,1.7-1.7c0.4-0.7,0.6-1.4,0.6-2.1v-2.5
			c-0.1,0.1-0.4,0.3-0.8,0.4c-0.4,0.1-0.8,0.2-1.4,0.3c-0.5,0.1-1,0.2-1.5,0.2c-0.5,0.1-0.9,0.1-1.2,0.1c-0.7,0.1-1.4,0.2-2,0.4
			c-0.6,0.2-1.1,0.5-1.5,0.9c-0.4,0.4-0.6,1-0.6,1.7c0,1,0.4,1.7,1.1,2.2C320.6-1688.1,321.6-1687.9,322.6-1687.9z"/>
		<path class="st0" d="M335.4-1679.1v-24.6h2.7v2.8h0.3c0.2-0.3,0.5-0.7,0.8-1.2c0.4-0.5,0.9-0.9,1.6-1.3c0.7-0.4,1.6-0.6,2.8-0.6
			c1.5,0,2.8,0.4,4,1.1s2,1.8,2.7,3.2c0.6,1.4,1,3,1,4.9c0,1.9-0.3,3.5-1,4.9s-1.5,2.5-2.7,3.2c-1.1,0.8-2.5,1.1-3.9,1.1
			c-1.1,0-2.1-0.2-2.8-0.6c-0.7-0.4-1.2-0.8-1.6-1.3c-0.4-0.5-0.7-0.9-0.9-1.2h-0.2v9.5H335.4z M338.1-1694.7c0,1.4,0.2,2.5,0.6,3.6
			s1,1.8,1.7,2.4c0.8,0.6,1.7,0.9,2.8,0.9c1.1,0,2.1-0.3,2.9-0.9c0.8-0.6,1.4-1.4,1.7-2.5c0.4-1,0.6-2.2,0.6-3.5
			c0-1.3-0.2-2.4-0.6-3.4c-0.4-1-1-1.8-1.7-2.4s-1.7-0.9-2.9-0.9c-1.1,0-2.1,0.3-2.8,0.8c-0.8,0.6-1.3,1.3-1.7,2.4
			S338.1-1696.1,338.1-1694.7z"/>
		<path class="st0" d="M363.1-1685.8h-7.4v-23.8h7.7c2.3,0,4.3,0.5,5.9,1.4c1.6,1,2.9,2.3,3.8,4.1c0.9,1.8,1.3,3.9,1.3,6.4
			c0,2.5-0.4,4.6-1.3,6.4c-0.9,1.8-2.2,3.2-3.9,4.1C367.6-1686.3,365.6-1685.8,363.1-1685.8z M358.7-1688.4h4.3c2,0,3.6-0.4,4.9-1.1
			c1.3-0.8,2.3-1.8,2.9-3.2s1-3.1,1-5c0-1.9-0.3-3.6-0.9-5c-0.6-1.4-1.6-2.5-2.8-3.2c-1.2-0.7-2.8-1.1-4.7-1.1h-4.6V-1688.4z"/>
		<path class="st0" d="M386.2-1685.4c-1.6,0-3-0.4-4.2-1.2c-1.2-0.8-2.2-1.8-2.8-3.2c-0.7-1.4-1-3-1-4.8c0-1.9,0.3-3.5,1-4.9
			c0.7-1.4,1.6-2.5,2.8-3.2c1.2-0.8,2.6-1.2,4.2-1.2s3,0.4,4.2,1.2c1.2,0.8,2.2,1.8,2.8,3.2c0.7,1.4,1,3,1,4.9c0,1.8-0.3,3.5-1,4.8
			c-0.7,1.4-1.6,2.5-2.8,3.2C389.3-1685.8,387.9-1685.4,386.2-1685.4z M386.2-1687.9c1.2,0,2.2-0.3,3-0.9c0.8-0.6,1.4-1.5,1.8-2.5
			c0.4-1,0.6-2.1,0.6-3.3c0-1.2-0.2-2.3-0.6-3.3c-0.4-1-1-1.9-1.8-2.5c-0.8-0.6-1.8-1-3-1c-1.2,0-2.2,0.3-3,1
			c-0.8,0.6-1.4,1.5-1.8,2.5c-0.4,1-0.6,2.1-0.6,3.3c0,1.2,0.2,2.3,0.6,3.3c0.4,1,1,1.9,1.8,2.5C384-1688.2,385-1687.9,386.2-1687.9
			z"/>
		<path class="st0" d="M406.3-1703.7v2.3H397v-2.3H406.3z M399.7-1708h2.7v17c0,0.8,0.1,1.4,0.3,1.7c0.2,0.4,0.5,0.6,0.9,0.8
			c0.4,0.1,0.7,0.2,1.1,0.2c0.3,0,0.6,0,0.7-0.1c0.2,0,0.3-0.1,0.5-0.1l0.6,2.5c-0.2,0.1-0.4,0.1-0.8,0.2c-0.3,0.1-0.8,0.1-1.3,0.1
			c-0.8,0-1.5-0.2-2.3-0.5c-0.7-0.3-1.4-0.8-1.8-1.5s-0.7-1.5-0.7-2.6V-1708z"/>
		<path class="st0" d="M430.9-1697.7c0,2.5-0.5,4.7-1.4,6.5s-2.2,3.2-3.7,4.2s-3.4,1.5-5.4,1.5c-2,0-3.8-0.5-5.4-1.5
			c-1.6-1-2.8-2.4-3.7-4.2s-1.4-4-1.4-6.5s0.5-4.7,1.4-6.5s2.2-3.2,3.7-4.2c1.6-1,3.4-1.5,5.4-1.5c2,0,3.8,0.5,5.4,1.5
			s2.8,2.4,3.7,4.2S430.9-1700.2,430.9-1697.7z M428.1-1697.7c0-2.1-0.3-3.8-1-5.2s-1.6-2.5-2.8-3.2c-1.2-0.7-2.5-1.1-3.9-1.1
			c-1.4,0-2.7,0.4-3.9,1.1c-1.2,0.7-2.1,1.8-2.8,3.2c-0.7,1.4-1,3.2-1,5.2c0,2.1,0.3,3.8,1,5.2c0.7,1.4,1.6,2.5,2.8,3.2
			c1.2,0.7,2.5,1.1,3.9,1.1c1.4,0,2.7-0.4,3.9-1.1c1.2-0.7,2.1-1.8,2.8-3.2S428.1-1695.7,428.1-1697.7z"/>
		<path class="st0" d="M438.1-1696.6v10.8h-2.7v-17.9h2.7v2.8h0.2c0.4-0.9,1.1-1.6,1.9-2.2s2-0.8,3.3-0.8c1.2,0,2.3,0.2,3.2,0.7
			c0.9,0.5,1.6,1.2,2.1,2.2s0.8,2.3,0.8,3.8v11.4h-2.7v-11.2c0-1.4-0.4-2.5-1.1-3.3c-0.7-0.8-1.7-1.2-3-1.2c-0.9,0-1.7,0.2-2.3,0.6
			c-0.7,0.4-1.2,0.9-1.6,1.7C438.3-1698.5,438.1-1697.6,438.1-1696.6z"/>
		<path class="st0" d="M462.1-1685.4c-1.7,0-3.2-0.4-4.5-1.1c-1.2-0.8-2.2-1.8-2.9-3.2c-0.7-1.4-1-3-1-4.8s0.3-3.4,1-4.8
			c0.7-1.4,1.6-2.5,2.8-3.3c1.2-0.8,2.6-1.2,4.2-1.2c0.9,0,1.9,0.2,2.8,0.5c0.9,0.3,1.7,0.8,2.5,1.5c0.7,0.7,1.3,1.6,1.8,2.8
			c0.4,1.1,0.7,2.5,0.7,4.2v1.2h-13.8v-2.4h11c0-1-0.2-1.9-0.6-2.7c-0.4-0.8-1-1.4-1.7-1.9s-1.6-0.7-2.6-0.7c-1.1,0-2,0.3-2.8,0.8
			c-0.8,0.5-1.4,1.2-1.8,2.1s-0.6,1.8-0.6,2.8v1.6c0,1.4,0.2,2.5,0.7,3.4c0.5,0.9,1.1,1.6,2,2.1s1.8,0.7,2.9,0.7
			c0.7,0,1.4-0.1,2-0.3c0.6-0.2,1.1-0.5,1.5-0.9s0.8-0.9,1-1.6l2.7,0.7c-0.3,0.9-0.7,1.7-1.4,2.4c-0.7,0.7-1.5,1.2-2.4,1.6
			C464.4-1685.6,463.3-1685.4,462.1-1685.4z"/>
		<path class="st0" d="M502.4-1702.2h-2.9c-0.2-0.8-0.5-1.6-0.9-2.2c-0.4-0.6-0.9-1.2-1.5-1.6c-0.6-0.4-1.3-0.8-2-1
			c-0.7-0.2-1.5-0.3-2.3-0.3c-1.4,0-2.7,0.4-3.9,1.1c-1.2,0.7-2.1,1.8-2.8,3.2c-0.7,1.4-1,3.2-1,5.2c0,2.1,0.3,3.8,1,5.2
			c0.7,1.4,1.6,2.5,2.8,3.2c1.2,0.7,2.5,1.1,3.9,1.1c0.8,0,1.6-0.1,2.3-0.3c0.7-0.2,1.4-0.5,2-1c0.6-0.4,1.1-1,1.5-1.6
			c0.4-0.6,0.7-1.4,0.9-2.2h2.9c-0.2,1.2-0.6,2.3-1.2,3.3c-0.6,1-1.3,1.8-2.1,2.4c-0.9,0.7-1.8,1.2-2.9,1.5
			c-1.1,0.3-2.2,0.5-3.4,0.5c-2,0-3.8-0.5-5.4-1.5c-1.6-1-2.8-2.4-3.7-4.2c-0.9-1.8-1.4-4-1.4-6.5s0.5-4.7,1.4-6.5
			c0.9-1.8,2.2-3.2,3.7-4.2c1.6-1,3.4-1.5,5.4-1.5c1.2,0,2.3,0.2,3.4,0.5c1.1,0.3,2,0.9,2.9,1.5c0.9,0.7,1.6,1.5,2.1,2.4
			S502.2-1703.4,502.4-1702.2z"/>
		<path class="st0" d="M514-1685.4c-1.6,0-3-0.4-4.2-1.2c-1.2-0.8-2.2-1.8-2.8-3.2c-0.7-1.4-1-3-1-4.8c0-1.9,0.3-3.5,1-4.9
			s1.6-2.5,2.8-3.2c1.2-0.8,2.6-1.2,4.2-1.2c1.6,0,3,0.4,4.2,1.2c1.2,0.8,2.2,1.8,2.8,3.2s1,3,1,4.9c0,1.8-0.3,3.5-1,4.8
			c-0.7,1.4-1.6,2.5-2.8,3.2C517-1685.8,515.6-1685.4,514-1685.4z M514-1687.9c1.2,0,2.2-0.3,3-0.9c0.8-0.6,1.4-1.5,1.8-2.5
			s0.6-2.1,0.6-3.3c0-1.2-0.2-2.3-0.6-3.3c-0.4-1-1-1.9-1.8-2.5c-0.8-0.6-1.8-1-3-1c-1.2,0-2.2,0.3-3,1c-0.8,0.6-1.4,1.5-1.8,2.5
			c-0.4,1-0.6,2.1-0.6,3.3c0,1.2,0.2,2.3,0.6,3.3c0.4,1,1,1.9,1.8,2.5C511.7-1688.2,512.8-1687.9,514-1687.9z"/>
		<path class="st0" d="M526.3-1685.8v-17.9h2.7v2.8h0.2c0.4-1,1-1.7,1.8-2.2c0.8-0.5,1.8-0.8,3-0.8c1.2,0,2.2,0.3,3,0.8
			c0.8,0.5,1.4,1.3,1.8,2.2h0.2c0.5-0.9,1.1-1.7,2.1-2.2c0.9-0.5,2-0.8,3.3-0.8c1.6,0,2.9,0.5,3.9,1.5c1,1,1.5,2.5,1.5,4.7v12H547
			v-12c0-1.3-0.4-2.3-1.1-2.8c-0.7-0.6-1.6-0.8-2.5-0.8c-1.3,0-2.2,0.4-2.9,1.1c-0.7,0.8-1,1.7-1,2.9v11.6h-2.8v-12.2
			c0-1-0.3-1.8-1-2.5s-1.5-0.9-2.5-0.9c-0.7,0-1.4,0.2-2,0.6c-0.6,0.4-1.1,0.9-1.5,1.6c-0.4,0.7-0.6,1.4-0.6,2.3v11.2H526.3z"/>
		<path class="st0" d="M554.8-1679.1v-24.6h2.7v2.8h0.3c0.2-0.3,0.5-0.7,0.8-1.2c0.4-0.5,0.9-0.9,1.6-1.3s1.6-0.6,2.8-0.6
			c1.5,0,2.8,0.4,4,1.1c1.1,0.8,2,1.8,2.7,3.2c0.6,1.4,1,3,1,4.9c0,1.9-0.3,3.5-1,4.9c-0.6,1.4-1.5,2.5-2.7,3.2
			c-1.1,0.8-2.5,1.1-3.9,1.1c-1.1,0-2.1-0.2-2.8-0.6c-0.7-0.4-1.2-0.8-1.6-1.3c-0.4-0.5-0.7-0.9-0.9-1.2h-0.2v9.5H554.8z
			 M557.5-1694.7c0,1.4,0.2,2.5,0.6,3.6s1,1.8,1.7,2.4c0.8,0.6,1.7,0.9,2.8,0.9c1.1,0,2.1-0.3,2.9-0.9c0.8-0.6,1.4-1.4,1.7-2.5
			c0.4-1,0.6-2.2,0.6-3.5c0-1.3-0.2-2.4-0.6-3.4c-0.4-1-1-1.8-1.7-2.4c-0.8-0.6-1.7-0.9-2.9-0.9c-1.1,0-2.1,0.3-2.8,0.8
			c-0.8,0.6-1.3,1.3-1.7,2.4S557.5-1696.1,557.5-1694.7z"/>
		<path class="st0" d="M580-1685.4c-1.1,0-2.2-0.2-3.1-0.6c-0.9-0.4-1.7-1.1-2.2-1.9s-0.8-1.8-0.8-3c0-1,0.2-1.9,0.6-2.5
			c0.4-0.6,0.9-1.1,1.6-1.5c0.7-0.4,1.4-0.6,2.2-0.8c0.8-0.2,1.6-0.3,2.5-0.4c1.1-0.1,2-0.2,2.6-0.3c0.7-0.1,1.2-0.2,1.5-0.4
			s0.5-0.5,0.5-0.9v-0.1c0-1.1-0.3-2-0.9-2.7c-0.6-0.6-1.6-1-2.8-1c-1.3,0-2.3,0.3-3.1,0.9s-1.3,1.2-1.6,1.8l-2.6-0.9
			c0.5-1.1,1.1-1.9,1.9-2.5c0.8-0.6,1.6-1,2.6-1.3c0.9-0.2,1.8-0.4,2.7-0.4c0.6,0,1.2,0.1,2,0.2c0.7,0.1,1.5,0.4,2.2,0.8
			s1.3,1.1,1.8,1.9s0.7,2,0.7,3.4v11.8h-2.7v-2.4h-0.1c-0.2,0.4-0.5,0.8-0.9,1.2s-1,0.8-1.7,1.1C581.9-1685.5,581-1685.4,580-1685.4
			z M580.4-1687.9c1.1,0,2-0.2,2.8-0.6c0.7-0.4,1.3-1,1.7-1.7c0.4-0.7,0.6-1.4,0.6-2.1v-2.5c-0.1,0.1-0.4,0.3-0.8,0.4
			s-0.8,0.2-1.3,0.3c-0.5,0.1-1,0.2-1.5,0.2c-0.5,0.1-0.9,0.1-1.2,0.1c-0.7,0.1-1.4,0.2-2,0.4c-0.6,0.2-1.1,0.5-1.5,0.9
			c-0.4,0.4-0.6,1-0.6,1.7c0,1,0.4,1.7,1.1,2.2C578.4-1688.1,579.3-1687.9,580.4-1687.9z"/>
		<path class="st0" d="M596-1696.6v10.8h-2.7v-17.9h2.7v2.8h0.2c0.4-0.9,1.1-1.6,1.9-2.2s2-0.8,3.3-0.8c1.2,0,2.3,0.2,3.2,0.7
			c0.9,0.5,1.6,1.2,2.1,2.2c0.5,1,0.8,2.3,0.8,3.8v11.4h-2.7v-11.2c0-1.4-0.4-2.5-1.1-3.3c-0.7-0.8-1.7-1.2-3-1.2
			c-0.9,0-1.7,0.2-2.3,0.6c-0.7,0.4-1.2,0.9-1.6,1.7C596.2-1698.5,596-1697.6,596-1696.6z"/>
		<path class="st0" d="M613.5-1679.1c-0.5,0-0.9,0-1.2-0.1c-0.4-0.1-0.6-0.1-0.8-0.2l0.7-2.4c1,0.3,1.8,0.3,2.5,0
			c0.7-0.3,1.2-1.1,1.7-2.4l0.5-1.4l-6.6-18h3l4.9,14.2h0.2l4.9-14.2l3,0l-7.6,20.4c-0.3,0.9-0.8,1.7-1.3,2.3
			c-0.5,0.6-1.1,1-1.8,1.3S614.3-1679.1,613.5-1679.1z"/>
	</g>
</g>
<g>
	<g>
		<path class="st0" d="M665.8-735.3c0.1,8.7-4.6,12.8-13.3,13.6c-1.8,0.2-3.7,0-5.5,0.1c-11.5,0.1-12.2,0.9-8.5,11.6
			c0.3,1,0.7,2,1,3c3.4,10.3,2.4,12.8-7.6,17.2c1.8,3.6,3.9,6.5,4.6,9.8c0.7,2.8,1,7.4-0.7,8.8c-8.5,7.3-7.9,17.1-7.3,26.3
			c1.2,19.3-13.3,29.1-28.8,28.9c-1.2,0-2.4,0-3.6,0h-99c0,0-3.6-28,9.4-49.8c0,0,0-0.1,0.1-0.1c3.8-7.1,8.7-13.8,14.8-20.2
			c12.6-13.2,24.3-27.2,35.3-41.7c4-5.3,6.9-12.9,7-19.4c0.7-35.7,0.4-71.4,0.3-107.1c0-10.3-5.2-15.2-16.9-15.3l-114,0
			c-12.3-0.2-16,3.3-16,15.8v21.7c0,69.2,0,138.4,0,207.5v8.7h-41.8v-167.2c0-16.4,0-32.7,0-49.1c0-17.8,0-35.6,0-53.3
			c0-23.8,17.2-42,41.1-42.3c40.7-0.5,81.5-1.8,122.1,0.4c45.7,2.5,79.7,34.2,90.9,80.8c2.7,11.4,3.2,23.5,3.2,35.3
			c0,10.2,2.2,19.3,7.6,27.8c7.2,11.4,14.8,22.5,21.6,34.1C664.2-745.2,665.8-740,665.8-735.3z"/>
		<path class="st0" d="M375.3-832.1c0,16.4,0,32.7,0,49.1L375.3-832.1L375.3-832.1z"/>
		<path class="st0" d="M530.8-814.6h-85.9c-2.9,0-5.2-2.3-5.2-5.2v-10.8c0-2.9,2.3-5.2,5.2-5.2h85.9c2.9,0,5.2,2.3,5.2,5.2v10.8
			C536-816.9,533.7-814.6,530.8-814.6z"/>
		<path class="st0" d="M518.1-764.9h-73.2c-2.9,0-5.2-2.3-5.2-5.2V-781c0-2.9,2.3-5.2,5.2-5.2h73.2c2.9,0,5.2,2.3,5.2,5.2v10.8
			C523.3-767.3,521-764.9,518.1-764.9z"/>
		<path class="st0" d="M498.8-715.3h-53.9c-2.9,0-5.2-2.3-5.2-5.2v-10.8c0-2.9,2.3-5.2,5.2-5.2h53.9c2.9,0,5.2,2.3,5.2,5.2v10.8
			C504-717.6,501.7-715.3,498.8-715.3z"/>
	</g>
	<g>
		<g>
			<g>
				<path class="st0" d="M301.8-522.3c0,6.3-1.1,12.1-3.3,17.5c-2.2,5.3-5.2,9.9-9.2,13.8c-4,3.9-8.7,6.9-14.3,9.1
					c-5.6,2.2-11.8,3.3-18.5,3.3h-33.9v-87.3h33.9c6.8,0,13,1.1,18.5,3.3c5.6,2.2,10.3,5.2,14.3,9.1c4,3.9,7,8.5,9.2,13.8
					C300.7-534.4,301.8-528.6,301.8-522.3z M281.1-522.3c0-4.3-0.6-8.2-1.7-11.7c-1.1-3.5-2.7-6.4-4.8-8.8c-2.1-2.4-4.7-4.3-7.7-5.6
					c-3-1.3-6.5-1.9-10.4-1.9H243v56.1h13.5c3.9,0,7.3-0.6,10.4-1.9c3-1.3,5.6-3.2,7.7-5.6c2.1-2.4,3.7-5.4,4.8-8.8
					C280.5-514,281.1-517.9,281.1-522.3z"/>
				<path class="st0" d="M308.9-532.1c3.8-3.3,7.9-5.8,12.5-7.4c4.6-1.6,9.5-2.4,14.7-2.4c3.8,0,7.1,0.6,10.2,1.8
					c3,1.2,5.6,2.9,7.7,5.1c2.1,2.2,3.7,4.8,4.8,7.8c1.1,3,1.7,6.3,1.7,9.8v38.8h-8.5c-1.8,0-3.1-0.2-4-0.7c-0.9-0.5-1.6-1.5-2.2-3
					l-1.3-3.4c-1.6,1.3-3.1,2.5-4.5,3.5c-1.4,1-2.9,1.8-4.5,2.5c-1.5,0.7-3.2,1.2-4.9,1.6c-1.7,0.3-3.7,0.5-5.8,0.5
					c-2.8,0-5.4-0.4-7.7-1.1c-2.3-0.7-4.3-1.8-5.9-3.3c-1.6-1.4-2.9-3.2-3.7-5.4c-0.9-2.1-1.3-4.6-1.3-7.4c0-2.2,0.6-4.5,1.7-6.8
					c1.1-2.3,3.1-4.4,5.8-6.3c2.8-1.9,6.5-3.5,11.1-4.8c4.7-1.3,10.6-2,17.7-2.2v-2.6c0-3.6-0.7-6.3-2.2-7.9
					c-1.5-1.6-3.6-2.4-6.4-2.4c-2.2,0-4,0.2-5.4,0.7c-1.4,0.5-2.6,1-3.7,1.6c-1.1,0.6-2.2,1.1-3.2,1.6c-1,0.5-2.3,0.7-3.7,0.7
					c-1.3,0-2.4-0.3-3.2-1c-0.9-0.6-1.6-1.4-2.2-2.3L308.9-532.1z M342.3-503.9c-3.7,0.2-6.8,0.5-9.2,1s-4.3,1.1-5.7,1.8
					c-1.4,0.7-2.4,1.5-2.9,2.5c-0.5,0.9-0.8,1.9-0.8,3c0,2.1,0.6,3.6,1.7,4.5c1.2,0.9,2.9,1.3,5.1,1.3c2.4,0,4.5-0.4,6.3-1.3
					c1.8-0.8,3.6-2.2,5.5-4.1V-503.9z"/>
				<path class="st0" d="M411.8-527.2c-0.5,0.8-1,1.3-1.5,1.6c-0.5,0.3-1.2,0.5-2.1,0.5c-0.9,0-1.8-0.2-2.6-0.6
					c-0.9-0.4-1.8-0.8-2.8-1.2c-1-0.4-2.2-0.8-3.4-1.2c-1.3-0.4-2.7-0.6-4.4-0.6c-2.4,0-4.2,0.4-5.4,1.3c-1.3,0.9-1.9,2.1-1.9,3.7
					c0,1.2,0.4,2.1,1.2,2.9c0.8,0.8,1.9,1.4,3.3,2c1.4,0.6,2.9,1.1,4.6,1.6c1.7,0.5,3.5,1.1,5.3,1.7c1.8,0.6,3.6,1.4,5.3,2.2
					c1.7,0.9,3.3,1.9,4.6,3.2c1.4,1.3,2.4,2.8,3.3,4.6c0.8,1.8,1.2,4,1.2,6.5c0,3.1-0.6,5.9-1.7,8.5c-1.1,2.6-2.8,4.8-5,6.7
					c-2.2,1.9-5,3.3-8.2,4.4c-3.3,1-7,1.6-11.2,1.6c-2.1,0-4.2-0.2-6.4-0.6c-2.1-0.4-4.2-0.9-6.1-1.6c-2-0.7-3.8-1.5-5.5-2.4
					c-1.7-0.9-3.1-1.9-4.3-3l4.3-6.8c0.5-0.8,1.1-1.4,1.8-1.9c0.7-0.5,1.7-0.7,2.8-0.7c1.1,0,2,0.2,2.9,0.7c0.9,0.5,1.8,1,2.8,1.6
					c1,0.6,2.2,1.1,3.5,1.6c1.3,0.5,3,0.7,5.1,0.7c1.4,0,2.7-0.2,3.7-0.4c1-0.3,1.8-0.7,2.4-1.2c0.6-0.5,1-1.1,1.3-1.7
					c0.3-0.6,0.4-1.3,0.4-2c0-1.2-0.4-2.3-1.3-3.1c-0.8-0.8-1.9-1.5-3.3-2.1c-1.4-0.6-2.9-1.1-4.6-1.6c-1.7-0.5-3.5-1.1-5.3-1.7
					c-1.8-0.6-3.6-1.4-5.3-2.3c-1.7-0.9-3.3-2-4.6-3.4c-1.4-1.4-2.5-3.1-3.3-5.1c-0.8-2-1.3-4.4-1.3-7.2c0-2.6,0.5-5.1,1.5-7.5
					c1-2.4,2.5-4.5,4.6-6.3c2-1.8,4.6-3.2,7.7-4.3c3.1-1.1,6.7-1.6,10.8-1.6c2.2,0,4.4,0.2,6.5,0.6c2.1,0.4,4.1,1,5.9,1.7
					c1.8,0.7,3.5,1.6,5,2.5c1.5,1,2.9,2,4,3.2L411.8-527.2z"/>
				<path class="st0" d="M444.2-535.3c2.2-1.9,4.7-3.5,7.3-4.6c2.6-1.2,5.7-1.8,9.4-1.8c3.4,0,6.4,0.6,9,1.8
					c2.6,1.2,4.8,2.8,6.6,4.9c1.8,2.1,3.2,4.6,4.1,7.5c0.9,2.9,1.4,6,1.4,9.4v39.5h-18.6v-39.5c0-3-0.7-5.4-2.1-7.1
					c-1.4-1.7-3.5-2.5-6.2-2.5c-2,0-3.9,0.4-5.7,1.3c-1.8,0.9-3.5,2-5.2,3.5v44.3h-18.6v-89.7h18.6V-535.3z"/>
				<path class="st0" d="M574-522.3c0,6.3-1.1,12.1-3.3,17.5c-2.2,5.3-5.2,9.9-9.2,13.8c-4,3.9-8.7,6.9-14.3,9.1
					c-5.6,2.2-11.8,3.3-18.5,3.3h-33.9v-87.3h33.9c6.8,0,13,1.1,18.5,3.3s10.3,5.2,14.3,9.1c4,3.9,7,8.5,9.2,13.8
					C572.9-534.4,574-528.6,574-522.3z M553.3-522.3c0-4.3-0.6-8.2-1.7-11.7c-1.1-3.5-2.7-6.4-4.8-8.8c-2.1-2.4-4.7-4.3-7.7-5.6
					c-3-1.3-6.5-1.9-10.4-1.9h-13.5v56.1h13.5c3.9,0,7.3-0.6,10.4-1.9c3-1.3,5.6-3.2,7.7-5.6c2.1-2.4,3.7-5.4,4.8-8.8
					C552.7-514,553.3-517.9,553.3-522.3z"/>
				<path class="st0" d="M611.8-541.7c4.7,0,9,0.7,12.9,2.2c3.9,1.5,7.2,3.6,10,6.4c2.8,2.8,4.9,6.1,6.5,10
					c1.5,3.9,2.3,8.4,2.3,13.3c0,5-0.8,9.4-2.3,13.4c-1.5,4-3.7,7.3-6.5,10.1c-2.8,2.8-6.1,4.9-10,6.4c-3.9,1.5-8.2,2.2-12.9,2.2
					c-4.8,0-9.1-0.7-13-2.2c-3.9-1.5-7.3-3.6-10.1-6.4c-2.8-2.8-5-6.2-6.5-10.1c-1.5-4-2.3-8.4-2.3-13.4c0-4.9,0.8-9.3,2.3-13.3
					c1.5-3.9,3.7-7.3,6.5-10c2.8-2.8,6.2-4.9,10.1-6.4C602.7-541,607-541.7,611.8-541.7z M611.8-491.4c4.3,0,7.4-1.5,9.4-4.5
					c2-3,3-7.6,3-13.8c0-6.2-1-10.7-3-13.7c-2-3-5.2-4.5-9.4-4.5c-4.4,0-7.6,1.5-9.6,4.5c-2,3-3.1,7.6-3.1,13.7
					c0,6.2,1,10.7,3.1,13.8C604.1-492.9,607.4-491.4,611.8-491.4z"/>
				<path class="st0" d="M709.3-478.6h-17.9c-1.3,0-2.4-0.3-3.2-1c-0.8-0.6-1.5-1.4-1.9-2.3l-11.1-19.1c-0.2,0.7-0.4,1.3-0.7,1.9
					c-0.3,0.6-0.6,1.2-0.9,1.7l-9.1,15.5c-0.6,0.8-1.2,1.5-2,2.2c-0.8,0.7-1.7,1-2.9,1H643l20.9-32.1l-20-30h17.9
					c1.3,0,2.3,0.2,2.9,0.5c0.6,0.3,1.2,0.9,1.6,1.7l11.1,18.4c0.2-0.7,0.5-1.4,0.9-2.1c0.4-0.7,0.8-1.4,1.2-2.1l7.9-13.8
					c0.6-0.9,1.1-1.5,1.8-1.9c0.6-0.4,1.4-0.6,2.3-0.6h17l-20,29.2L709.3-478.6z"/>
				<path class="st0" d="M754.5-527.2c-0.5,0.8-1,1.3-1.5,1.6c-0.5,0.3-1.2,0.5-2.1,0.5c-0.9,0-1.8-0.2-2.6-0.6
					c-0.9-0.4-1.8-0.8-2.8-1.2c-1-0.4-2.2-0.8-3.4-1.2c-1.3-0.4-2.7-0.6-4.4-0.6c-2.4,0-4.2,0.4-5.4,1.3c-1.3,0.9-1.9,2.1-1.9,3.7
					c0,1.2,0.4,2.1,1.2,2.9c0.8,0.8,1.9,1.4,3.3,2c1.4,0.6,2.9,1.1,4.6,1.6c1.7,0.5,3.5,1.1,5.3,1.7c1.8,0.6,3.6,1.4,5.3,2.2
					c1.7,0.9,3.3,1.9,4.6,3.2c1.4,1.3,2.4,2.8,3.3,4.6c0.8,1.8,1.2,4,1.2,6.5c0,3.1-0.6,5.9-1.7,8.5c-1.1,2.6-2.8,4.8-5,6.7
					c-2.2,1.9-5,3.3-8.2,4.4c-3.3,1-7,1.6-11.2,1.6c-2.1,0-4.2-0.2-6.4-0.6c-2.1-0.4-4.2-0.9-6.1-1.6c-2-0.7-3.8-1.5-5.5-2.4
					c-1.7-0.9-3.1-1.9-4.3-3l4.3-6.8c0.5-0.8,1.1-1.4,1.8-1.9c0.7-0.5,1.7-0.7,2.8-0.7c1.1,0,2,0.2,2.9,0.7c0.9,0.5,1.8,1,2.8,1.6
					c1,0.6,2.2,1.1,3.5,1.6s3,0.7,5.1,0.7c1.4,0,2.7-0.2,3.7-0.4c1-0.3,1.8-0.7,2.4-1.2c0.6-0.5,1-1.1,1.3-1.7
					c0.3-0.6,0.4-1.3,0.4-2c0-1.2-0.4-2.3-1.3-3.1s-1.9-1.5-3.3-2.1c-1.4-0.6-2.9-1.1-4.6-1.6c-1.7-0.5-3.5-1.1-5.3-1.7
					c-1.8-0.6-3.6-1.4-5.3-2.3c-1.7-0.9-3.3-2-4.6-3.4c-1.4-1.4-2.5-3.1-3.3-5.1c-0.8-2-1.3-4.4-1.3-7.2c0-2.6,0.5-5.1,1.5-7.5
					c1-2.4,2.5-4.5,4.6-6.3c2-1.8,4.6-3.2,7.7-4.3c3.1-1.1,6.7-1.6,10.8-1.6c2.2,0,4.4,0.2,6.5,0.6c2.1,0.4,4.1,1,5.9,1.7
					c1.8,0.7,3.5,1.6,5,2.5c1.5,1,2.9,2,4,3.2L754.5-527.2z"/>
			</g>
		</g>
		<g>
			<path class="st0" d="M227-428.6h-3.5l10-27.3h3.4l10,27.3h-3.5l-8.2-23h-0.2L227-428.6z M228.3-439.3h14v2.9h-14V-439.3z"/>
			<path class="st0" d="M261.9-428.6v-27.3h3.3v24.4h12.7v2.9H261.9z"/>
			<path class="st0" d="M291-428.2c-1.9,0-3.5-0.4-4.9-1.3c-1.4-0.9-2.5-2.1-3.3-3.7c-0.8-1.6-1.2-3.4-1.2-5.6c0-2.1,0.4-4,1.2-5.6
				c0.8-1.6,1.9-2.8,3.3-3.7c1.4-0.9,3-1.3,4.9-1.3s3.5,0.4,4.9,1.3c1.4,0.9,2.5,2.1,3.3,3.7c0.8,1.6,1.2,3.5,1.2,5.6
				c0,2.1-0.4,4-1.2,5.6c-0.8,1.6-1.9,2.8-3.3,3.7C294.4-428.6,292.8-428.2,291-428.2z M291-431c1.4,0,2.6-0.4,3.5-1.1
				c0.9-0.7,1.6-1.7,2-2.8c0.4-1.2,0.7-2.4,0.7-3.8c0-1.4-0.2-2.6-0.7-3.8c-0.4-1.2-1.1-2.1-2-2.9c-0.9-0.7-2.1-1.1-3.5-1.1
				c-1.4,0-2.6,0.4-3.5,1.1c-0.9,0.7-1.6,1.7-2,2.9c-0.4,1.2-0.7,2.5-0.7,3.8c0,1.4,0.2,2.6,0.7,3.8c0.4,1.2,1.1,2.1,2,2.8
				C288.4-431.4,289.5-431,291-431z"/>
			<path class="st0" d="M308.2-440.9v12.3H305v-20.5h3v3.2h0.3c0.5-1,1.2-1.9,2.2-2.5s2.2-1,3.8-1c1.4,0,2.6,0.3,3.6,0.8
				c1,0.6,1.9,1.4,2.4,2.6c0.6,1.1,0.9,2.6,0.9,4.3v13h-3.2v-12.8c0-1.6-0.4-2.9-1.3-3.8c-0.8-0.9-2-1.4-3.4-1.4
				c-1,0-1.9,0.2-2.7,0.7c-0.8,0.4-1.4,1.1-1.9,1.9C308.4-443.1,308.2-442.1,308.2-440.9z"/>
			<path class="st0" d="M335.3-420.5c-1.5,0-2.8-0.2-3.9-0.6c-1.1-0.4-2-0.9-2.7-1.5c-0.7-0.6-1.3-1.3-1.7-2l2.5-1.8
				c0.3,0.4,0.6,0.8,1.1,1.3c0.4,0.5,1,0.9,1.8,1.3c0.8,0.4,1.8,0.5,3,0.5c1.7,0,3-0.4,4.1-1.2c1.1-0.8,1.6-2.1,1.6-3.8v-4.2h-0.3
				c-0.2,0.4-0.6,0.8-1,1.4c-0.4,0.5-1,1-1.8,1.5s-1.8,0.6-3.2,0.6c-1.7,0-3.1-0.4-4.5-1.2c-1.3-0.8-2.3-1.9-3.1-3.4
				c-0.8-1.5-1.1-3.3-1.1-5.4c0-2.1,0.4-3.9,1.1-5.5c0.7-1.6,1.8-2.8,3.1-3.6c1.3-0.9,2.8-1.3,4.6-1.3c1.3,0,2.4,0.2,3.2,0.7
				c0.8,0.4,1.4,0.9,1.8,1.5c0.4,0.6,0.7,1,1,1.4h0.3v-3.3h3v21.1c0,1.8-0.4,3.2-1.2,4.3c-0.8,1.1-1.9,1.9-3.2,2.4
				C338.5-420.7,337-420.5,335.3-420.5z M335.2-431.7c1.3,0,2.3-0.3,3.2-0.9c0.9-0.6,1.5-1.4,2-2.5c0.5-1.1,0.7-2.4,0.7-3.9
				c0-1.5-0.2-2.8-0.7-3.9c-0.4-1.1-1.1-2-2-2.7c-0.9-0.6-1.9-1-3.2-1c-1.3,0-2.4,0.3-3.3,1c-0.9,0.7-1.5,1.6-2,2.7
				c-0.4,1.1-0.7,2.4-0.7,3.8c0,1.4,0.2,2.7,0.7,3.8c0.4,1.1,1.1,1.9,2,2.6C332.8-432.1,333.9-431.7,335.2-431.7z"/>
			<path class="st0" d="M350.4-428.6v-27.3h3.3v24.4h12.7v2.9H350.4z"/>
			<path class="st0" d="M379.7-428.2c-2,0-3.7-0.4-5.1-1.3c-1.4-0.9-2.5-2.1-3.3-3.7c-0.8-1.6-1.2-3.4-1.2-5.5c0-2.1,0.4-4,1.2-5.6
				c0.8-1.6,1.8-2.9,3.2-3.8c1.4-0.9,3-1.4,4.9-1.4c1.1,0,2.1,0.2,3.2,0.5c1,0.4,2,0.9,2.8,1.7c0.9,0.8,1.5,1.8,2,3.2
				c0.5,1.3,0.8,2.9,0.8,4.8v1.3h-15.8v-2.7H385c0-1.2-0.2-2.2-0.7-3.1c-0.5-0.9-1.1-1.6-1.9-2.1s-1.8-0.8-3-0.8
				c-1.3,0-2.3,0.3-3.3,0.9c-0.9,0.6-1.6,1.4-2.1,2.4c-0.5,1-0.7,2-0.7,3.2v1.8c0,1.5,0.3,2.9,0.8,3.9c0.5,1.1,1.3,1.9,2.2,2.4
				c1,0.6,2.1,0.8,3.4,0.8c0.8,0,1.6-0.1,2.2-0.4c0.7-0.2,1.3-0.6,1.7-1.1c0.5-0.5,0.9-1.1,1.1-1.8l3,0.9c-0.3,1-0.9,1.9-1.6,2.7
				c-0.8,0.8-1.7,1.4-2.8,1.8C382.3-428.4,381.1-428.2,379.7-428.2z"/>
			<path class="st0" d="M399-428.1c-1.3,0-2.5-0.2-3.5-0.7c-1.1-0.5-1.9-1.2-2.5-2.1c-0.6-0.9-0.9-2.1-0.9-3.4
				c0-1.2,0.2-2.1,0.7-2.9c0.5-0.7,1.1-1.3,1.9-1.7c0.8-0.4,1.6-0.7,2.6-0.9c0.9-0.2,1.9-0.4,2.8-0.5c1.2-0.2,2.3-0.3,3-0.4
				c0.8-0.1,1.3-0.2,1.7-0.4c0.4-0.2,0.5-0.6,0.5-1.1v-0.1c0-1.3-0.4-2.3-1.1-3.1c-0.7-0.7-1.8-1.1-3.3-1.1c-1.5,0-2.7,0.3-3.5,1
				c-0.9,0.7-1.5,1.4-1.8,2.1l-3-1.1c0.5-1.2,1.2-2.2,2.1-2.9c0.9-0.7,1.9-1.2,2.9-1.5c1.1-0.3,2.1-0.4,3.1-0.4
				c0.7,0,1.4,0.1,2.3,0.2c0.9,0.2,1.7,0.5,2.5,1c0.8,0.5,1.5,1.2,2,2.2c0.5,1,0.8,2.3,0.8,3.9v13.5h-3.2v-2.8h-0.2
				c-0.2,0.4-0.6,0.9-1.1,1.4c-0.5,0.5-1.2,0.9-2,1.3C401.2-428.3,400.2-428.1,399-428.1z M399.5-430.9c1.2,0,2.3-0.2,3.2-0.7
				c0.9-0.5,1.5-1.1,1.9-1.9c0.4-0.8,0.7-1.6,0.7-2.4v-2.9c-0.1,0.2-0.4,0.3-0.9,0.4c-0.4,0.1-1,0.2-1.5,0.3
				c-0.6,0.1-1.1,0.2-1.7,0.2c-0.5,0.1-1,0.1-1.3,0.2c-0.8,0.1-1.6,0.3-2.3,0.5c-0.7,0.2-1.3,0.6-1.7,1.1c-0.4,0.5-0.6,1.1-0.6,1.9
				c0,1.1,0.4,1.9,1.2,2.5C397.2-431.2,398.3-430.9,399.5-430.9z"/>
			<path class="st0" d="M414.2-420.9v-28.2h3v3.3h0.4c0.2-0.4,0.6-0.8,1-1.4c0.4-0.6,1-1.1,1.8-1.5c0.8-0.4,1.8-0.7,3.2-0.7
				c1.7,0,3.2,0.4,4.6,1.3c1.3,0.9,2.3,2.1,3.1,3.7c0.7,1.6,1.1,3.5,1.1,5.6c0,2.2-0.4,4.1-1.1,5.6s-1.8,2.8-3.1,3.7
				c-1.3,0.9-2.8,1.3-4.5,1.3c-1.3,0-2.4-0.2-3.2-0.7c-0.8-0.4-1.4-0.9-1.8-1.5c-0.4-0.6-0.8-1-1-1.4h-0.3v10.8H414.2z M417.3-438.8
				c0,1.5,0.2,2.9,0.7,4.1c0.5,1.2,1.1,2.1,2,2.8c0.9,0.7,1.9,1,3.2,1c1.3,0,2.4-0.3,3.3-1c0.9-0.7,1.6-1.6,2-2.8
				c0.4-1.2,0.7-2.5,0.7-4c0-1.4-0.2-2.7-0.7-3.9c-0.4-1.2-1.1-2.1-2-2.8c-0.9-0.7-2-1-3.3-1c-1.3,0-2.4,0.3-3.2,1
				c-0.9,0.6-1.5,1.5-2,2.7C417.5-441.7,417.3-440.4,417.3-438.8z"/>
			<path class="st0" d="M446-428.6h-8.4v-27.3h8.8c2.7,0,4.9,0.5,6.8,1.6c1.9,1.1,3.3,2.7,4.3,4.7c1,2,1.5,4.5,1.5,7.3
				c0,2.8-0.5,5.3-1.5,7.3c-1,2.1-2.5,3.6-4.4,4.7C451.1-429.1,448.8-428.6,446-428.6z M440.9-431.5h4.9c2.3,0,4.1-0.4,5.6-1.3
				c1.5-0.9,2.6-2.1,3.3-3.7c0.7-1.6,1.1-3.5,1.1-5.8c0-2.2-0.4-4.1-1.1-5.7c-0.7-1.6-1.8-2.8-3.2-3.7c-1.4-0.9-3.2-1.3-5.4-1.3
				h-5.3V-431.5z"/>
			<path class="st0" d="M472.5-428.2c-1.9,0-3.5-0.4-4.9-1.3c-1.4-0.9-2.5-2.1-3.3-3.7c-0.8-1.6-1.2-3.4-1.2-5.6
				c0-2.1,0.4-4,1.2-5.6c0.8-1.6,1.9-2.8,3.3-3.7c1.4-0.9,3-1.3,4.9-1.3s3.5,0.4,4.9,1.3c1.4,0.9,2.5,2.1,3.3,3.7
				c0.8,1.6,1.2,3.5,1.2,5.6c0,2.1-0.4,4-1.2,5.6c-0.8,1.6-1.9,2.8-3.3,3.7C475.9-428.6,474.3-428.2,472.5-428.2z M472.5-431
				c1.4,0,2.6-0.4,3.5-1.1c0.9-0.7,1.6-1.7,2-2.8c0.4-1.2,0.7-2.4,0.7-3.8c0-1.4-0.2-2.6-0.7-3.8c-0.4-1.2-1.1-2.1-2-2.9
				c-0.9-0.7-2.1-1.1-3.5-1.1c-1.4,0-2.6,0.4-3.5,1.1c-0.9,0.7-1.6,1.7-2,2.9c-0.4,1.2-0.7,2.5-0.7,3.8c0,1.4,0.2,2.6,0.7,3.8
				c0.4,1.2,1.1,2.1,2,2.8C469.9-431.4,471.1-431,472.5-431z"/>
			<path class="st0" d="M495.5-449.1v2.7h-10.6v-2.7H495.5z M488-454h3.2v19.5c0,0.9,0.1,1.6,0.4,2c0.3,0.4,0.6,0.7,1,0.9
				c0.4,0.1,0.9,0.2,1.3,0.2c0.3,0,0.6,0,0.9-0.1c0.2,0,0.4-0.1,0.5-0.1l0.6,2.8c-0.2,0.1-0.5,0.2-0.9,0.2c-0.4,0.1-0.9,0.1-1.5,0.1
				c-0.9,0-1.8-0.2-2.6-0.6c-0.9-0.4-1.6-1-2.1-1.7c-0.6-0.8-0.8-1.8-0.8-3V-454z"/>
			<path class="st0" d="M523.7-442.3c0,2.9-0.5,5.4-1.6,7.5s-2.5,3.7-4.3,4.9c-1.8,1.1-3.9,1.7-6.2,1.7c-2.3,0-4.4-0.6-6.2-1.7
				c-1.8-1.1-3.2-2.8-4.3-4.9s-1.6-4.6-1.6-7.5s0.5-5.4,1.6-7.5s2.5-3.7,4.3-4.9c1.8-1.1,3.9-1.7,6.2-1.7c2.3,0,4.4,0.6,6.2,1.7
				c1.8,1.1,3.2,2.8,4.3,4.9S523.7-445.1,523.7-442.3z M520.5-442.3c0-2.4-0.4-4.4-1.2-6c-0.8-1.6-1.9-2.9-3.2-3.7
				c-1.3-0.8-2.8-1.3-4.5-1.3c-1.7,0-3.2,0.4-4.5,1.3c-1.3,0.8-2.4,2.1-3.2,3.7c-0.8,1.6-1.2,3.6-1.2,6c0,2.4,0.4,4.4,1.2,6
				c0.8,1.6,1.9,2.9,3.2,3.7c1.3,0.8,2.8,1.3,4.5,1.3c1.7,0,3.2-0.4,4.5-1.3c1.3-0.8,2.4-2.1,3.2-3.7
				C520.1-437.9,520.5-439.9,520.5-442.3z"/>
			<path class="st0" d="M532-440.9v12.3h-3.2v-20.5h3v3.2h0.3c0.5-1,1.2-1.9,2.2-2.5c1-0.6,2.2-1,3.8-1c1.4,0,2.6,0.3,3.6,0.8
				c1,0.6,1.9,1.4,2.4,2.6s0.9,2.6,0.9,4.3v13h-3.2v-12.8c0-1.6-0.4-2.9-1.3-3.8c-0.8-0.9-2-1.4-3.4-1.4c-1,0-1.9,0.2-2.7,0.7
				c-0.8,0.4-1.4,1.1-1.9,1.9C532.2-443.1,532-442.1,532-440.9z"/>
			<path class="st0" d="M559.5-428.2c-2,0-3.7-0.4-5.1-1.3c-1.4-0.9-2.5-2.1-3.3-3.7c-0.8-1.6-1.2-3.4-1.2-5.5c0-2.1,0.4-4,1.2-5.6
				c0.8-1.6,1.8-2.9,3.2-3.8c1.4-0.9,3-1.4,4.9-1.4c1.1,0,2.1,0.2,3.2,0.5c1,0.4,2,0.9,2.8,1.7c0.9,0.8,1.5,1.8,2,3.2
				c0.5,1.3,0.8,2.9,0.8,4.8v1.3h-15.8v-2.7h12.6c0-1.2-0.2-2.2-0.7-3.1c-0.5-0.9-1.1-1.6-1.9-2.1s-1.8-0.8-3-0.8
				c-1.3,0-2.3,0.3-3.3,0.9c-0.9,0.6-1.6,1.4-2.1,2.4c-0.5,1-0.7,2-0.7,3.2v1.8c0,1.5,0.3,2.9,0.8,3.9c0.5,1.1,1.3,1.9,2.2,2.4
				c1,0.6,2.1,0.8,3.4,0.8c0.8,0,1.6-0.1,2.2-0.4c0.7-0.2,1.3-0.6,1.7-1.1c0.5-0.5,0.9-1.1,1.1-1.8l3,0.9c-0.3,1-0.9,1.9-1.6,2.7
				c-0.8,0.8-1.7,1.4-2.8,1.8C562.1-428.4,560.9-428.2,559.5-428.2z"/>
			<path class="st0" d="M605.8-447.4h-3.3c-0.2-1-0.5-1.8-1-2.5c-0.5-0.7-1.1-1.3-1.8-1.8c-0.7-0.5-1.5-0.9-2.3-1.1
				c-0.8-0.2-1.7-0.4-2.6-0.4c-1.7,0-3.2,0.4-4.5,1.3c-1.3,0.8-2.4,2.1-3.2,3.7c-0.8,1.6-1.2,3.6-1.2,6c0,2.4,0.4,4.4,1.2,6
				c0.8,1.6,1.9,2.9,3.2,3.7c1.3,0.8,2.8,1.3,4.5,1.3c0.9,0,1.8-0.1,2.6-0.4c0.8-0.2,1.6-0.6,2.3-1.1c0.7-0.5,1.3-1.1,1.8-1.8
				c0.5-0.7,0.8-1.6,1-2.5h3.3c-0.2,1.4-0.7,2.6-1.4,3.8c-0.7,1.1-1.5,2-2.5,2.8c-1,0.8-2.1,1.4-3.3,1.8c-1.2,0.4-2.5,0.6-3.9,0.6
				c-2.3,0-4.4-0.6-6.2-1.7c-1.8-1.1-3.2-2.8-4.3-4.9c-1-2.1-1.6-4.6-1.6-7.5s0.5-5.4,1.6-7.5c1-2.1,2.5-3.7,4.3-4.9
				c1.8-1.1,3.9-1.7,6.2-1.7c1.4,0,2.7,0.2,3.9,0.6c1.2,0.4,2.3,1,3.3,1.8c1,0.8,1.8,1.7,2.5,2.8C605.1-450,605.5-448.8,605.8-447.4
				z"/>
			<path class="st0" d="M619-428.2c-1.9,0-3.5-0.4-4.9-1.3c-1.4-0.9-2.5-2.1-3.3-3.7c-0.8-1.6-1.2-3.4-1.2-5.6c0-2.1,0.4-4,1.2-5.6
				c0.8-1.6,1.9-2.8,3.3-3.7c1.4-0.9,3-1.3,4.9-1.3c1.9,0,3.5,0.4,4.9,1.3c1.4,0.9,2.5,2.1,3.3,3.7c0.8,1.6,1.2,3.5,1.2,5.6
				c0,2.1-0.4,4-1.2,5.6c-0.8,1.6-1.9,2.8-3.3,3.7C622.5-428.6,620.9-428.2,619-428.2z M619-431c1.4,0,2.6-0.4,3.5-1.1
				c0.9-0.7,1.6-1.7,2-2.8c0.4-1.2,0.7-2.4,0.7-3.8c0-1.4-0.2-2.6-0.7-3.8c-0.4-1.2-1.1-2.1-2-2.9c-0.9-0.7-2.1-1.1-3.5-1.1
				c-1.4,0-2.6,0.4-3.5,1.1c-0.9,0.7-1.6,1.7-2,2.9c-0.4,1.2-0.7,2.5-0.7,3.8c0,1.4,0.2,2.6,0.7,3.8c0.4,1.2,1.1,2.1,2,2.8
				C616.4-431.4,617.6-431,619-431z"/>
			<path class="st0" d="M633.1-428.6v-20.5h3v3.2h0.3c0.4-1.1,1.1-1.9,2.1-2.6c1-0.6,2.1-0.9,3.4-0.9c1.4,0,2.5,0.3,3.4,0.9
				c0.9,0.6,1.6,1.5,2.1,2.6h0.2c0.5-1.1,1.3-1.9,2.4-2.5c1.1-0.6,2.3-0.9,3.8-0.9c1.8,0,3.3,0.6,4.5,1.7c1.2,1.1,1.7,2.9,1.7,5.3
				v13.7h-3.2v-13.7c0-1.5-0.4-2.6-1.2-3.2c-0.8-0.6-1.8-1-2.9-1c-1.4,0-2.6,0.4-3.4,1.3c-0.8,0.9-1.2,2-1.2,3.3v13.4H645v-14
				c0-1.2-0.4-2.1-1.1-2.8c-0.8-0.7-1.7-1.1-2.9-1.1c-0.8,0-1.6,0.2-2.3,0.7c-0.7,0.4-1.3,1-1.7,1.8c-0.4,0.8-0.6,1.7-0.6,2.7v12.8
				H633.1z"/>
			<path class="st0" d="M665.8-420.9v-28.2h3v3.3h0.4c0.2-0.4,0.6-0.8,1-1.4c0.4-0.6,1-1.1,1.8-1.5s1.8-0.7,3.2-0.7
				c1.7,0,3.2,0.4,4.6,1.3c1.3,0.9,2.3,2.1,3.1,3.7c0.7,1.6,1.1,3.5,1.1,5.6c0,2.2-0.4,4.1-1.1,5.6c-0.7,1.6-1.8,2.8-3.1,3.7
				c-1.3,0.9-2.8,1.3-4.5,1.3c-1.3,0-2.4-0.2-3.2-0.7c-0.8-0.4-1.4-0.9-1.8-1.5c-0.4-0.6-0.8-1-1-1.4h-0.3v10.8H665.8z M668.9-438.8
				c0,1.5,0.2,2.9,0.7,4.1c0.5,1.2,1.1,2.1,2,2.8c0.9,0.7,1.9,1,3.2,1c1.3,0,2.4-0.3,3.3-1c0.9-0.7,1.6-1.6,2-2.8
				c0.4-1.2,0.7-2.5,0.7-4c0-1.4-0.2-2.7-0.7-3.9c-0.4-1.2-1.1-2.1-2-2.8c-0.9-0.7-2-1-3.3-1c-1.3,0-2.4,0.3-3.2,1
				c-0.9,0.6-1.5,1.5-2,2.7C669.1-441.7,668.9-440.4,668.9-438.8z"/>
			<path class="st0" d="M694.7-428.1c-1.3,0-2.5-0.2-3.5-0.7c-1.1-0.5-1.9-1.2-2.5-2.1c-0.6-0.9-0.9-2.1-0.9-3.4
				c0-1.2,0.2-2.1,0.7-2.9c0.5-0.7,1.1-1.3,1.9-1.7c0.8-0.4,1.6-0.7,2.6-0.9c0.9-0.2,1.9-0.4,2.8-0.5c1.2-0.2,2.3-0.3,3-0.4
				c0.8-0.1,1.3-0.2,1.7-0.4c0.4-0.2,0.5-0.6,0.5-1.1v-0.1c0-1.3-0.4-2.3-1.1-3.1c-0.7-0.7-1.8-1.1-3.3-1.1c-1.5,0-2.7,0.3-3.5,1
				s-1.5,1.4-1.8,2.1l-3-1.1c0.5-1.2,1.2-2.2,2.1-2.9c0.9-0.7,1.9-1.2,2.9-1.5c1.1-0.3,2.1-0.4,3.1-0.4c0.7,0,1.4,0.1,2.3,0.2
				c0.9,0.2,1.7,0.5,2.5,1c0.8,0.5,1.5,1.2,2,2.2c0.5,1,0.8,2.3,0.8,3.9v13.5H701v-2.8h-0.2c-0.2,0.4-0.6,0.9-1.1,1.4
				c-0.5,0.5-1.2,0.9-2,1.3C696.9-428.3,695.9-428.1,694.7-428.1z M695.2-430.9c1.2,0,2.3-0.2,3.2-0.7c0.9-0.5,1.5-1.1,1.9-1.9
				c0.4-0.8,0.7-1.6,0.7-2.4v-2.9c-0.1,0.2-0.4,0.3-0.9,0.4c-0.4,0.1-1,0.2-1.5,0.3c-0.6,0.1-1.1,0.2-1.7,0.2
				c-0.5,0.1-1,0.1-1.3,0.2c-0.8,0.1-1.6,0.3-2.3,0.5c-0.7,0.2-1.3,0.6-1.7,1.1c-0.4,0.5-0.6,1.1-0.6,1.9c0,1.1,0.4,1.9,1.2,2.5
				C692.9-431.2,694-430.9,695.2-430.9z"/>
			<path class="st0" d="M713-440.9v12.3h-3.2v-20.5h3v3.2h0.3c0.5-1,1.2-1.9,2.2-2.5c1-0.6,2.2-1,3.8-1c1.4,0,2.6,0.3,3.6,0.8
				c1,0.6,1.9,1.4,2.4,2.6c0.6,1.1,0.9,2.6,0.9,4.3v13H723v-12.8c0-1.6-0.4-2.9-1.3-3.8c-0.8-0.9-2-1.4-3.4-1.4
				c-1,0-1.9,0.2-2.7,0.7c-0.8,0.4-1.4,1.1-1.9,1.9C713.3-443.1,713-442.1,713-440.9z"/>
			<path class="st0" d="M733.2-421c-0.5,0-1,0-1.4-0.1c-0.4-0.1-0.7-0.2-0.9-0.2l0.8-2.8c1.1,0.3,2.1,0.3,2.9,0
				c0.8-0.3,1.4-1.2,2-2.8l0.6-1.6l-7.6-20.6h3.4l5.7,16.3h0.2l5.7-16.3l3.4,0.1l-8.7,23.4c-0.4,1-0.9,1.9-1.5,2.6
				c-0.6,0.7-1.2,1.2-2,1.5C735-421.1,734.1-421,733.2-421z"/>
		</g>
	</g>
</g>
<g>
	<g>
		<path class="st0" d="M907.4,603.7c0.2,24.4-12.9,36-37.2,38.1c-5.1,0.4-10.4,0.1-15.5,0.2c-32.3,0.2-34.1,2.6-23.8,32.5
			c0.9,2.8,1.8,5.7,2.8,8.5c9.6,28.7,6.6,35.8-21.3,48.3c5,10.1,10.9,18.3,12.9,27.4c1.8,8,2.7,20.8-1.8,24.8
			c-23.8,20.6-22.1,48.1-20.5,73.9c3.5,54.2-37.4,81.7-80.8,81c-3.4,0-6.8-0.1-10.2-0.1H434.3c0,0-10.1-78.6,26.4-139.6
			c0.1-0.1,0.1-0.3,0.2-0.4c10.5-19.8,24.4-38.7,41.5-56.6c35.2-36.9,68-76.4,98.9-116.9c11.3-14.8,19.4-36,19.7-54.5
			c1.9-100,1.1-200.1,0.8-300.2c0-28.8-14.6-42.6-47.3-42.9L254.8,227c-34.6-0.4-45,9.2-45,44.3v60.8c0,193.9,0,387.9,0.1,581.9
			v24.4H92.6V469.7c0-45.9,0-91.7,0-137.6c0-49.8,0-99.7,0-149.5C92.8,116,140.9,64.8,208.1,64c114.1-1.5,228.5-5.1,342.3,1.2
			c128,7.1,223.5,95.8,255,226.7c7.7,31.9,8.9,65.9,9.1,98.9c0.1,28.6,6.1,54.2,21.2,77.9c20.2,31.9,41.5,63.1,60.5,95.7
			C902.8,575.9,907.3,590.5,907.4,603.7z"/>
		<path class="st0" d="M92.7,332.2c0,45.9,0,91.7,0,137.6L92.7,332.2L92.7,332.2z"/>
		<path class="st0" d="M538.2,381.4H278.5c-2.9,0-5.2-2.3-5.2-5.2V327c0-2.9,2.3-5.2,5.2-5.2h259.6c2.9,0,5.2,2.3,5.2,5.2v49.1
			C543.4,379.1,541.1,381.4,538.2,381.4z"/>
		<path class="st0" d="M502.5,520.6h-224c-2.9,0-5.2-2.3-5.2-5.2v-49.1c0-2.9,2.3-5.2,5.2-5.2h224c2.9,0,5.2,2.3,5.2,5.2v49.1
			C507.8,518.2,505.4,520.6,502.5,520.6z"/>
		<path class="st0" d="M448.6,659.7h-170c-2.9,0-5.2-2.3-5.2-5.2v-49.1c0-2.9,2.3-5.2,5.2-5.2h170c2.9,0,5.2,2.3,5.2,5.2v49.1
			C453.8,657.4,451.4,659.7,448.6,659.7z"/>
	</g>
</g>
<g>
	<g>
		<linearGradient id="SVGID_1_" gradientUnits="userSpaceOnUse" x1="-1014.701" y1="160.235" x2="-310.4734" y2="898.2994">
			<stop  offset="0" style="stop-color:#4338CA"/>
			<stop  offset="1" style="stop-color:#7E56D8"/>
		</linearGradient>
		<path class="st1" d="M-153.4,603.7c0.2,24.4-12.9,36-37.2,38.1c-5.1,0.4-10.4,0.1-15.5,0.2c-32.3,0.2-34.1,2.6-23.8,32.5
			c0.9,2.8,1.8,5.7,2.8,8.5c9.6,28.7,6.6,35.8-21.3,48.3c5,10.1,10.9,18.3,12.9,27.4c1.8,8,2.7,20.8-1.8,24.8
			c-23.8,20.6-22.1,48.1-20.5,73.9c3.5,54.2-37.4,81.7-80.8,81c-3.4,0-6.8-0.1-10.2-0.1h-277.6c0,0-10.1-78.6,26.4-139.6
			c0.1-0.1,0.1-0.3,0.2-0.4c10.5-19.8,24.4-38.7,41.5-56.6c35.2-36.9,68-76.4,98.9-116.9c11.3-14.8,19.4-36,19.7-54.5
			c1.9-100,1.1-200.1,0.8-300.2c0-28.8-14.6-42.6-47.3-42.9l-319.7-0.1c-34.6-0.4-45,9.2-45,44.3v60.8c0,193.9,0,387.9,0.1,581.9
			v24.4h-117.3V469.7c0-45.9,0-91.7,0-137.6c0-49.8,0-99.7,0-149.5C-967.9,116-919.9,64.8-852.7,64c114.1-1.5,228.5-5.1,342.3,1.2
			c128,7.1,223.5,95.8,255,226.7c7.7,31.9,8.9,65.9,9.1,98.9c0.1,28.6,6.1,54.2,21.2,77.9c20.2,31.9,41.5,63.1,60.5,95.7
			C-157.9,575.9-153.5,590.5-153.4,603.7z"/>
		
			<linearGradient id="SVGID_00000057866866621665294550000014258659114862774175_" gradientUnits="userSpaceOnUse" x1="-1110.5292" y1="251.6699" x2="-406.3016" y2="989.7343">
			<stop  offset="0" style="stop-color:#4338CA"/>
			<stop  offset="1" style="stop-color:#7E56D8"/>
		</linearGradient>
		<path style="fill:url(#SVGID_00000057866866621665294550000014258659114862774175_);" d="M-968.1,332.2c0,45.9,0,91.7,0,137.6
			L-968.1,332.2L-968.1,332.2z"/>
		
			<linearGradient id="SVGID_00000008867495095787271020000009543532790438040220_" gradientUnits="userSpaceOnUse" x1="-947.2468" y1="42.5713" x2="-173.1272" y2="853.8857">
			<stop  offset="0" style="stop-color:#4338CA"/>
			<stop  offset="1" style="stop-color:#7E56D8"/>
		</linearGradient>
		<path style="fill:url(#SVGID_00000008867495095787271020000009543532790438040220_);" d="M-522.6,381.4h-259.6
			c-2.9,0-5.2-2.3-5.2-5.2V327c0-2.9,2.3-5.2,5.2-5.2h259.6c2.9,0,5.2,2.3,5.2,5.2v49.1C-517.3,379.1-519.7,381.4-522.6,381.4z"/>
		
			<linearGradient id="SVGID_00000131334923694158940300000014721042841533202613_" gradientUnits="userSpaceOnUse" x1="-1036.5923" y1="106.7699" x2="-252.9365" y2="928.0787">
			<stop  offset="0" style="stop-color:#4338CA"/>
			<stop  offset="1" style="stop-color:#7E56D8"/>
		</linearGradient>
		<path style="fill:url(#SVGID_00000131334923694158940300000014721042841533202613_);" d="M-558.2,520.6h-224
			c-2.9,0-5.2-2.3-5.2-5.2v-49.1c0-2.9,2.3-5.2,5.2-5.2h224c2.9,0,5.2,2.3,5.2,5.2v49.1C-553,518.2-555.3,520.6-558.2,520.6z"/>
		
			<linearGradient id="SVGID_00000046329634200422566600000011143120843962540173_" gradientUnits="userSpaceOnUse" x1="-1137.9548" y1="167.9893" x2="-333.6042" y2="1010.9874">
			<stop  offset="0" style="stop-color:#4338CA"/>
			<stop  offset="1" style="stop-color:#7E56D8"/>
		</linearGradient>
		<path style="fill:url(#SVGID_00000046329634200422566600000011143120843962540173_);" d="M-612.2,659.7h-170
			c-2.9,0-5.2-2.3-5.2-5.2v-49.1c0-2.9,2.3-5.2,5.2-5.2h170c2.9,0,5.2,2.3,5.2,5.2v49.1C-607,657.4-609.3,659.7-612.2,659.7z"/>
	</g>
</g>
<g>
	<g>
		
			<linearGradient id="SVGID_00000074421096933113939310000009298113513994839708_" gradientUnits="userSpaceOnUse" x1="-682.1721" y1="-893.4605" x2="-430.9926" y2="-630.2123">
			<stop  offset="0" style="stop-color:#4338CA"/>
			<stop  offset="1" style="stop-color:#7E56D8"/>
		</linearGradient>
		<path style="fill:url(#SVGID_00000074421096933113939310000009298113513994839708_);" d="M-375-735.3c0.1,8.7-4.6,12.8-13.3,13.6
			c-1.8,0.2-3.7,0-5.5,0.1c-11.5,0.1-12.2,0.9-8.5,11.6c0.3,1,0.7,2,1,3c3.4,10.3,2.4,12.8-7.6,17.2c1.8,3.6,3.9,6.5,4.6,9.8
			c0.7,2.8,1,7.4-0.7,8.8c-8.5,7.3-7.9,17.1-7.3,26.3c1.2,19.3-13.3,29.1-28.8,28.9c-1.2,0-2.4,0-3.6,0h-99c0,0-3.6-28,9.4-49.8
			c0,0,0-0.1,0.1-0.1c3.8-7.1,8.7-13.8,14.8-20.2c12.6-13.2,24.3-27.2,35.3-41.7c4-5.3,6.9-12.9,7-19.4c0.7-35.7,0.4-71.4,0.3-107.1
			c0-10.3-5.2-15.2-16.9-15.3l-114,0c-12.3-0.2-16,3.3-16,15.8v21.7c0,69.2,0,138.4,0,207.5v8.7h-41.8v-167.2c0-16.4,0-32.7,0-49.1
			c0-17.8,0-35.6,0-53.3c0-23.8,17.2-42,41.1-42.3c40.7-0.5,81.5-1.8,122.1,0.4c45.7,2.5,79.7,34.2,90.9,80.8
			c2.7,11.4,3.2,23.5,3.2,35.3c0,10.2,2.2,19.3,7.6,27.8c7.2,11.4,14.8,22.5,21.6,34.1C-376.6-745.2-375-740-375-735.3z"/>
		
			<linearGradient id="SVGID_00000145024193634847040210000008116580875735155642_" gradientUnits="userSpaceOnUse" x1="-716.3514" y1="-860.8481" x2="-465.172" y2="-597.5999">
			<stop  offset="0" style="stop-color:#4338CA"/>
			<stop  offset="1" style="stop-color:#7E56D8"/>
		</linearGradient>
		<path style="fill:url(#SVGID_00000145024193634847040210000008116580875735155642_);" d="M-665.5-832.1c0,16.4,0,32.7,0,49.1
			L-665.5-832.1L-665.5-832.1z"/>
		
			<linearGradient id="SVGID_00000171680497111527870080000009756149719105783983_" gradientUnits="userSpaceOnUse" x1="-654.4709" y1="-931.6111" x2="-387.9243" y2="-652.2574">
			<stop  offset="0" style="stop-color:#4338CA"/>
			<stop  offset="1" style="stop-color:#7E56D8"/>
		</linearGradient>
		<path style="fill:url(#SVGID_00000171680497111527870080000009756149719105783983_);" d="M-510-814.6h-85.9
			c-2.9,0-5.2-2.3-5.2-5.2v-10.8c0-2.9,2.3-5.2,5.2-5.2h85.9c2.9,0,5.2,2.3,5.2,5.2v10.8C-504.8-816.9-507.1-814.6-510-814.6z"/>
		
			<linearGradient id="SVGID_00000004544206544429067990000001376590410060013735_" gradientUnits="userSpaceOnUse" x1="-684.8998" y1="-907.2058" x2="-416.2564" y2="-625.6546">
			<stop  offset="0" style="stop-color:#4338CA"/>
			<stop  offset="1" style="stop-color:#7E56D8"/>
		</linearGradient>
		<path style="fill:url(#SVGID_00000004544206544429067990000001376590410060013735_);" d="M-522.7-764.9h-73.2
			c-2.9,0-5.2-2.3-5.2-5.2V-781c0-2.9,2.3-5.2,5.2-5.2h73.2c2.9,0,5.2,2.3,5.2,5.2v10.8C-517.5-767.3-519.8-764.9-522.7-764.9z"/>
		
			<linearGradient id="SVGID_00000058549440735403253910000013834707833299264425_" gradientUnits="userSpaceOnUse" x1="-718.6279" y1="-882.8286" x2="-445.4343" y2="-596.5085">
			<stop  offset="0" style="stop-color:#4338CA"/>
			<stop  offset="1" style="stop-color:#7E56D8"/>
		</linearGradient>
		<path style="fill:url(#SVGID_00000058549440735403253910000013834707833299264425_);" d="M-542-715.3h-53.9
			c-2.9,0-5.2-2.3-5.2-5.2v-10.8c0-2.9,2.3-5.2,5.2-5.2h53.9c2.9,0,5.2,2.3,5.2,5.2v10.8C-536.7-717.6-539.1-715.3-542-715.3z"/>
	</g>
	<g>
		<g>
			<g>
				<path class="st11" d="M-739-522.3c0,6.3-1.1,12.1-3.3,17.5c-2.2,5.3-5.2,9.9-9.2,13.8c-4,3.9-8.7,6.9-14.3,9.1
					c-5.6,2.2-11.8,3.3-18.5,3.3h-33.9v-87.3h33.9c6.8,0,13,1.1,18.5,3.3c5.6,2.2,10.3,5.2,14.3,9.1c4,3.9,7,8.5,9.2,13.8
					C-740.1-534.4-739-528.6-739-522.3z M-759.7-522.3c0-4.3-0.6-8.2-1.7-11.7c-1.1-3.5-2.7-6.4-4.8-8.8c-2.1-2.4-4.7-4.3-7.7-5.6
					c-3-1.3-6.5-1.9-10.4-1.9h-13.5v56.1h13.5c3.9,0,7.3-0.6,10.4-1.9c3-1.3,5.6-3.2,7.7-5.6c2.1-2.4,3.7-5.4,4.8-8.8
					C-760.3-514-759.7-517.9-759.7-522.3z"/>
				<path class="st11" d="M-731.9-532.1c3.8-3.3,7.9-5.8,12.5-7.4c4.6-1.6,9.5-2.4,14.7-2.4c3.8,0,7.1,0.6,10.2,1.8
					c3,1.2,5.6,2.9,7.7,5.1c2.1,2.2,3.7,4.8,4.8,7.8c1.1,3,1.7,6.3,1.7,9.8v38.8h-8.5c-1.8,0-3.1-0.2-4-0.7c-0.9-0.5-1.6-1.5-2.2-3
					l-1.3-3.4c-1.6,1.3-3.1,2.5-4.5,3.5c-1.4,1-2.9,1.8-4.5,2.5c-1.5,0.7-3.2,1.2-4.9,1.6c-1.7,0.3-3.7,0.5-5.8,0.5
					c-2.8,0-5.4-0.4-7.7-1.1c-2.3-0.7-4.3-1.8-5.9-3.3c-1.6-1.4-2.9-3.2-3.7-5.4c-0.9-2.1-1.3-4.6-1.3-7.4c0-2.2,0.6-4.5,1.7-6.8
					c1.1-2.3,3.1-4.4,5.8-6.3c2.8-1.9,6.5-3.5,11.1-4.8c4.7-1.3,10.6-2,17.7-2.2v-2.6c0-3.6-0.7-6.3-2.2-7.9s-3.6-2.4-6.4-2.4
					c-2.2,0-4,0.2-5.4,0.7c-1.4,0.5-2.6,1-3.7,1.6c-1.1,0.6-2.2,1.1-3.2,1.6c-1,0.5-2.3,0.7-3.7,0.7c-1.3,0-2.4-0.3-3.2-1
					c-0.9-0.6-1.6-1.4-2.2-2.3L-731.9-532.1z M-698.5-503.9c-3.7,0.2-6.8,0.5-9.2,1s-4.3,1.1-5.7,1.8c-1.4,0.7-2.4,1.5-2.9,2.5
					c-0.5,0.9-0.8,1.9-0.8,3c0,2.1,0.6,3.6,1.7,4.5c1.2,0.9,2.9,1.3,5.1,1.3c2.4,0,4.5-0.4,6.3-1.3s3.6-2.2,5.5-4.1V-503.9z"/>
				<path class="st11" d="M-629-527.2c-0.5,0.8-1,1.3-1.5,1.6c-0.5,0.3-1.2,0.5-2.1,0.5c-0.9,0-1.8-0.2-2.6-0.6
					c-0.9-0.4-1.8-0.8-2.8-1.2c-1-0.4-2.2-0.8-3.4-1.2c-1.3-0.4-2.7-0.6-4.4-0.6c-2.4,0-4.2,0.4-5.4,1.3c-1.3,0.9-1.9,2.1-1.9,3.7
					c0,1.2,0.4,2.1,1.2,2.9c0.8,0.8,1.9,1.4,3.3,2c1.4,0.6,2.9,1.1,4.6,1.6c1.7,0.5,3.5,1.1,5.3,1.7c1.8,0.6,3.6,1.4,5.3,2.2
					c1.7,0.9,3.3,1.9,4.6,3.2c1.4,1.3,2.4,2.8,3.3,4.6c0.8,1.8,1.2,4,1.2,6.5c0,3.1-0.6,5.9-1.7,8.5c-1.1,2.6-2.8,4.8-5,6.7
					c-2.2,1.9-5,3.3-8.2,4.4c-3.3,1-7,1.6-11.2,1.6c-2.1,0-4.2-0.2-6.4-0.6c-2.1-0.4-4.2-0.9-6.1-1.6c-2-0.7-3.8-1.5-5.5-2.4
					c-1.7-0.9-3.1-1.9-4.3-3l4.3-6.8c0.5-0.8,1.1-1.4,1.8-1.9c0.7-0.5,1.7-0.7,2.8-0.7c1.1,0,2,0.2,2.9,0.7c0.9,0.5,1.8,1,2.8,1.6
					c1,0.6,2.2,1.1,3.5,1.6c1.3,0.5,3,0.7,5.1,0.7c1.4,0,2.7-0.2,3.7-0.4c1-0.3,1.8-0.7,2.4-1.2c0.6-0.5,1-1.1,1.3-1.7
					c0.3-0.6,0.4-1.3,0.4-2c0-1.2-0.4-2.3-1.3-3.1c-0.8-0.8-1.9-1.5-3.3-2.1c-1.4-0.6-2.9-1.1-4.6-1.6c-1.7-0.5-3.5-1.1-5.3-1.7
					c-1.8-0.6-3.6-1.4-5.3-2.3c-1.7-0.9-3.3-2-4.6-3.4c-1.4-1.4-2.5-3.1-3.3-5.1c-0.8-2-1.3-4.4-1.3-7.2c0-2.6,0.5-5.1,1.5-7.5
					c1-2.4,2.5-4.5,4.6-6.3c2-1.8,4.6-3.2,7.7-4.3c3.1-1.1,6.7-1.6,10.8-1.6c2.2,0,4.4,0.2,6.5,0.6c2.1,0.4,4.1,1,5.9,1.7
					c1.8,0.7,3.5,1.6,5,2.5c1.5,1,2.9,2,4,3.2L-629-527.2z"/>
				<path class="st11" d="M-596.6-535.3c2.2-1.9,4.7-3.5,7.3-4.6c2.6-1.2,5.7-1.8,9.4-1.8c3.4,0,6.4,0.6,9,1.8
					c2.6,1.2,4.8,2.8,6.6,4.9c1.8,2.1,3.2,4.6,4.1,7.5c0.9,2.9,1.4,6,1.4,9.4v39.5h-18.6v-39.5c0-3-0.7-5.4-2.1-7.1
					c-1.4-1.7-3.5-2.5-6.2-2.5c-2,0-3.9,0.4-5.7,1.3c-1.8,0.9-3.5,2-5.2,3.5v44.3h-18.6v-89.7h18.6V-535.3z"/>
				<path class="st11" d="M-466.8-522.3c0,6.3-1.1,12.1-3.3,17.5c-2.2,5.3-5.2,9.9-9.2,13.8c-4,3.9-8.7,6.9-14.3,9.1
					c-5.6,2.2-11.8,3.3-18.5,3.3H-546v-87.3h33.9c6.8,0,13,1.1,18.5,3.3s10.3,5.2,14.3,9.1c4,3.9,7,8.5,9.2,13.8
					C-467.9-534.4-466.8-528.6-466.8-522.3z M-487.5-522.3c0-4.3-0.6-8.2-1.7-11.7c-1.1-3.5-2.7-6.4-4.8-8.8
					c-2.1-2.4-4.7-4.3-7.7-5.6c-3-1.3-6.5-1.9-10.4-1.9h-13.5v56.1h13.5c3.9,0,7.3-0.6,10.4-1.9c3-1.3,5.6-3.2,7.7-5.6
					c2.1-2.4,3.7-5.4,4.8-8.8C-488.1-514-487.5-517.9-487.5-522.3z"/>
				<path class="st11" d="M-429-541.7c4.7,0,9,0.7,12.9,2.2c3.9,1.5,7.2,3.6,10,6.4c2.8,2.8,4.9,6.1,6.5,10
					c1.5,3.9,2.3,8.4,2.3,13.3c0,5-0.8,9.4-2.3,13.4c-1.5,4-3.7,7.3-6.5,10.1c-2.8,2.8-6.1,4.9-10,6.4c-3.9,1.5-8.2,2.2-12.9,2.2
					c-4.8,0-9.1-0.7-13-2.2c-3.9-1.5-7.3-3.6-10.1-6.4c-2.8-2.8-5-6.2-6.5-10.1c-1.5-4-2.3-8.4-2.3-13.4c0-4.9,0.8-9.3,2.3-13.3
					c1.5-3.9,3.7-7.3,6.5-10c2.8-2.8,6.2-4.9,10.1-6.4C-438.1-541-433.8-541.7-429-541.7z M-429-491.4c4.3,0,7.4-1.5,9.4-4.5
					c2-3,3-7.6,3-13.8c0-6.2-1-10.7-3-13.7c-2-3-5.2-4.5-9.4-4.5c-4.4,0-7.6,1.5-9.6,4.5c-2,3-3.1,7.6-3.1,13.7
					c0,6.2,1,10.7,3.1,13.8C-436.6-492.9-433.4-491.4-429-491.4z"/>
				<path class="st11" d="M-331.5-478.6h-17.9c-1.3,0-2.4-0.3-3.2-1c-0.8-0.6-1.5-1.4-1.9-2.3l-11.1-19.1c-0.2,0.7-0.4,1.3-0.7,1.9
					c-0.3,0.6-0.6,1.2-0.9,1.7l-9.1,15.5c-0.6,0.8-1.2,1.5-2,2.2c-0.8,0.7-1.7,1-2.9,1h-16.5l20.9-32.1l-20-30h17.9
					c1.3,0,2.3,0.2,2.9,0.5c0.6,0.3,1.2,0.9,1.6,1.7l11.1,18.4c0.2-0.7,0.5-1.4,0.9-2.1c0.4-0.7,0.8-1.4,1.2-2.1l7.9-13.8
					c0.6-0.9,1.1-1.5,1.8-1.9c0.6-0.4,1.4-0.6,2.3-0.6h17l-20,29.2L-331.5-478.6z"/>
				<path class="st11" d="M-286.3-527.2c-0.5,0.8-1,1.3-1.5,1.6c-0.5,0.3-1.2,0.5-2.1,0.5c-0.9,0-1.8-0.2-2.6-0.6
					c-0.9-0.4-1.8-0.8-2.8-1.2c-1-0.4-2.2-0.8-3.4-1.2c-1.3-0.4-2.7-0.6-4.4-0.6c-2.4,0-4.2,0.4-5.4,1.3c-1.3,0.9-1.9,2.1-1.9,3.7
					c0,1.2,0.4,2.1,1.2,2.9c0.8,0.8,1.9,1.4,3.3,2c1.4,0.6,2.9,1.1,4.6,1.6c1.7,0.5,3.5,1.1,5.3,1.7c1.8,0.6,3.6,1.4,5.3,2.2
					c1.7,0.9,3.3,1.9,4.6,3.2c1.4,1.3,2.4,2.8,3.3,4.6c0.8,1.8,1.2,4,1.2,6.5c0,3.1-0.6,5.9-1.7,8.5c-1.1,2.6-2.8,4.8-5,6.7
					c-2.2,1.9-5,3.3-8.2,4.4c-3.3,1-7,1.6-11.2,1.6c-2.1,0-4.2-0.2-6.4-0.6c-2.1-0.4-4.2-0.9-6.1-1.6c-2-0.7-3.8-1.5-5.5-2.4
					c-1.7-0.9-3.1-1.9-4.3-3l4.3-6.8c0.5-0.8,1.1-1.4,1.8-1.9c0.7-0.5,1.7-0.7,2.8-0.7c1.1,0,2,0.2,2.9,0.7s1.8,1,2.8,1.6
					s2.2,1.1,3.5,1.6s3,0.7,5.1,0.7c1.4,0,2.7-0.2,3.7-0.4c1-0.3,1.8-0.7,2.4-1.2c0.6-0.5,1-1.1,1.3-1.7c0.3-0.6,0.4-1.3,0.4-2
					c0-1.2-0.4-2.3-1.3-3.1c-0.8-0.8-1.9-1.5-3.3-2.1c-1.4-0.6-2.9-1.1-4.6-1.6c-1.7-0.5-3.5-1.1-5.3-1.7c-1.8-0.6-3.6-1.4-5.3-2.3
					c-1.7-0.9-3.3-2-4.6-3.4c-1.4-1.4-2.5-3.1-3.3-5.1c-0.8-2-1.3-4.4-1.3-7.2c0-2.6,0.5-5.1,1.5-7.5c1-2.4,2.5-4.5,4.6-6.3
					c2-1.8,4.6-3.2,7.7-4.3c3.1-1.1,6.7-1.6,10.8-1.6c2.2,0,4.4,0.2,6.5,0.6c2.1,0.4,4.1,1,5.9,1.7c1.8,0.7,3.5,1.6,5,2.5
					c1.5,1,2.9,2,4,3.2L-286.3-527.2z"/>
			</g>
		</g>
		<g>
			<path class="st12" d="M-813.8-428.6h-3.5l10-27.3h3.4l10,27.3h-3.5l-8.2-23h-0.2L-813.8-428.6z M-812.5-439.3h14v2.9h-14V-439.3z
				"/>
			<path class="st12" d="M-778.9-428.6v-27.3h3.3v24.4h12.7v2.9H-778.9z"/>
			<path class="st12" d="M-749.8-428.2c-1.9,0-3.5-0.4-4.9-1.3c-1.4-0.9-2.5-2.1-3.3-3.7c-0.8-1.6-1.2-3.4-1.2-5.6
				c0-2.1,0.4-4,1.2-5.6c0.8-1.6,1.9-2.8,3.3-3.7c1.4-0.9,3-1.3,4.9-1.3s3.5,0.4,4.9,1.3c1.4,0.9,2.5,2.1,3.3,3.7
				c0.8,1.6,1.2,3.5,1.2,5.6c0,2.1-0.4,4-1.2,5.6c-0.8,1.6-1.9,2.8-3.3,3.7C-746.4-428.6-748-428.2-749.8-428.2z M-749.8-431
				c1.4,0,2.6-0.4,3.5-1.1c0.9-0.7,1.6-1.7,2-2.8c0.4-1.2,0.7-2.4,0.7-3.8c0-1.4-0.2-2.6-0.7-3.8c-0.4-1.2-1.1-2.1-2-2.9
				c-0.9-0.7-2.1-1.1-3.5-1.1c-1.4,0-2.6,0.4-3.5,1.1c-0.9,0.7-1.6,1.7-2,2.9c-0.4,1.2-0.7,2.5-0.7,3.8c0,1.4,0.2,2.6,0.7,3.8
				c0.4,1.2,1.1,2.1,2,2.8C-752.4-431.4-751.2-431-749.8-431z"/>
			<path class="st12" d="M-732.6-440.9v12.3h-3.2v-20.5h3v3.2h0.3c0.5-1,1.2-1.9,2.2-2.5c1-0.6,2.2-1,3.8-1c1.4,0,2.6,0.3,3.6,0.8
				c1,0.6,1.9,1.4,2.4,2.6s0.9,2.6,0.9,4.3v13h-3.2v-12.8c0-1.6-0.4-2.9-1.3-3.8c-0.8-0.9-2-1.4-3.4-1.4c-1,0-1.9,0.2-2.7,0.7
				c-0.8,0.4-1.4,1.1-1.9,1.9C-732.4-443.1-732.6-442.1-732.6-440.9z"/>
			<path class="st12" d="M-705.5-420.5c-1.5,0-2.8-0.2-3.9-0.6c-1.1-0.4-2-0.9-2.7-1.5c-0.7-0.6-1.3-1.3-1.7-2l2.5-1.8
				c0.3,0.4,0.6,0.8,1.1,1.3c0.4,0.5,1,0.9,1.8,1.3c0.8,0.4,1.8,0.5,3,0.5c1.7,0,3-0.4,4.1-1.2c1.1-0.8,1.6-2.1,1.6-3.8v-4.2h-0.3
				c-0.2,0.4-0.6,0.8-1,1.4c-0.4,0.5-1,1-1.8,1.5c-0.8,0.4-1.8,0.6-3.2,0.6c-1.7,0-3.1-0.4-4.5-1.2c-1.3-0.8-2.3-1.9-3.1-3.4
				c-0.8-1.5-1.1-3.3-1.1-5.4c0-2.1,0.4-3.9,1.1-5.5c0.7-1.6,1.8-2.8,3.1-3.6c1.3-0.9,2.8-1.3,4.6-1.3c1.3,0,2.4,0.2,3.2,0.7
				c0.8,0.4,1.4,0.9,1.8,1.5c0.4,0.6,0.7,1,1,1.4h0.3v-3.3h3v21.1c0,1.8-0.4,3.2-1.2,4.3c-0.8,1.1-1.9,1.9-3.2,2.4
				C-702.3-420.7-703.8-420.5-705.5-420.5z M-705.6-431.7c1.3,0,2.3-0.3,3.2-0.9c0.9-0.6,1.5-1.4,2-2.5c0.5-1.1,0.7-2.4,0.7-3.9
				c0-1.5-0.2-2.8-0.7-3.9c-0.4-1.1-1.1-2-2-2.7c-0.9-0.6-1.9-1-3.2-1c-1.3,0-2.4,0.3-3.3,1c-0.9,0.7-1.5,1.6-2,2.7
				c-0.4,1.1-0.7,2.4-0.7,3.8c0,1.4,0.2,2.7,0.7,3.8c0.4,1.1,1.1,1.9,2,2.6C-708-432.1-706.9-431.7-705.6-431.7z"/>
			<path class="st12" d="M-690.4-428.6v-27.3h3.3v24.4h12.7v2.9H-690.4z"/>
			<path class="st12" d="M-661.1-428.2c-2,0-3.7-0.4-5.1-1.3c-1.4-0.9-2.5-2.1-3.3-3.7c-0.8-1.6-1.2-3.4-1.2-5.5
				c0-2.1,0.4-4,1.2-5.6c0.8-1.6,1.8-2.9,3.2-3.8c1.4-0.9,3-1.4,4.9-1.4c1.1,0,2.1,0.2,3.2,0.5c1,0.4,2,0.9,2.8,1.7
				c0.9,0.8,1.5,1.8,2,3.2c0.5,1.3,0.8,2.9,0.8,4.8v1.3h-15.8v-2.7h12.6c0-1.2-0.2-2.2-0.7-3.1c-0.5-0.9-1.1-1.6-1.9-2.1
				c-0.8-0.5-1.8-0.8-3-0.8c-1.3,0-2.3,0.3-3.3,0.9c-0.9,0.6-1.6,1.4-2.1,2.4c-0.5,1-0.7,2-0.7,3.2v1.8c0,1.5,0.3,2.9,0.8,3.9
				c0.5,1.1,1.3,1.9,2.2,2.4s2.1,0.8,3.4,0.8c0.8,0,1.6-0.1,2.2-0.4c0.7-0.2,1.3-0.6,1.7-1.1c0.5-0.5,0.9-1.1,1.1-1.8l3,0.9
				c-0.3,1-0.9,1.9-1.6,2.7c-0.8,0.8-1.7,1.4-2.8,1.8C-658.4-428.4-659.7-428.2-661.1-428.2z"/>
			<path class="st12" d="M-641.8-428.1c-1.3,0-2.5-0.2-3.5-0.7s-1.9-1.2-2.5-2.1c-0.6-0.9-0.9-2.1-0.9-3.4c0-1.2,0.2-2.1,0.7-2.9
				c0.5-0.7,1.1-1.3,1.9-1.7c0.8-0.4,1.6-0.7,2.6-0.9c0.9-0.2,1.9-0.4,2.8-0.5c1.2-0.2,2.3-0.3,3-0.4c0.8-0.1,1.3-0.2,1.7-0.4
				c0.4-0.2,0.5-0.6,0.5-1.1v-0.1c0-1.3-0.4-2.3-1.1-3.1c-0.7-0.7-1.8-1.1-3.3-1.1c-1.5,0-2.7,0.3-3.5,1c-0.9,0.7-1.5,1.4-1.8,2.1
				l-3-1.1c0.5-1.2,1.2-2.2,2.1-2.9c0.9-0.7,1.9-1.2,2.9-1.5c1.1-0.3,2.1-0.4,3.1-0.4c0.7,0,1.4,0.1,2.3,0.2c0.9,0.2,1.7,0.5,2.5,1
				c0.8,0.5,1.5,1.2,2,2.2c0.5,1,0.8,2.3,0.8,3.9v13.5h-3.2v-2.8h-0.2c-0.2,0.4-0.6,0.9-1.1,1.4c-0.5,0.5-1.2,0.9-2,1.3
				C-639.5-428.3-640.6-428.1-641.8-428.1z M-641.3-430.9c1.2,0,2.3-0.2,3.2-0.7c0.9-0.5,1.5-1.1,1.9-1.9c0.4-0.8,0.7-1.6,0.7-2.4
				v-2.9c-0.1,0.2-0.4,0.3-0.9,0.4c-0.4,0.1-1,0.2-1.5,0.3c-0.6,0.1-1.1,0.2-1.7,0.2c-0.5,0.1-1,0.1-1.3,0.2
				c-0.8,0.1-1.6,0.3-2.3,0.5c-0.7,0.2-1.3,0.6-1.7,1.1c-0.4,0.5-0.6,1.1-0.6,1.9c0,1.1,0.4,1.9,1.2,2.5
				C-643.6-431.2-642.5-430.9-641.3-430.9z"/>
			<path class="st12" d="M-626.6-420.9v-28.2h3v3.3h0.4c0.2-0.4,0.6-0.8,1-1.4c0.4-0.6,1-1.1,1.8-1.5c0.8-0.4,1.8-0.7,3.2-0.7
				c1.7,0,3.2,0.4,4.6,1.3s2.3,2.1,3.1,3.7c0.7,1.6,1.1,3.5,1.1,5.6c0,2.2-0.4,4.1-1.1,5.6c-0.7,1.6-1.8,2.8-3.1,3.7
				c-1.3,0.9-2.8,1.3-4.5,1.3c-1.3,0-2.4-0.2-3.2-0.7c-0.8-0.4-1.4-0.9-1.8-1.5c-0.4-0.6-0.8-1-1-1.4h-0.3v10.8H-626.6z
				 M-623.5-438.8c0,1.5,0.2,2.9,0.7,4.1c0.5,1.2,1.1,2.1,2,2.8c0.9,0.7,1.9,1,3.2,1c1.3,0,2.4-0.3,3.3-1c0.9-0.7,1.6-1.6,2-2.8
				c0.4-1.2,0.7-2.5,0.7-4c0-1.4-0.2-2.7-0.7-3.9c-0.4-1.2-1.1-2.1-2-2.8c-0.9-0.7-2-1-3.3-1c-1.3,0-2.4,0.3-3.2,1
				c-0.9,0.6-1.5,1.5-2,2.7C-623.3-441.7-623.5-440.4-623.5-438.8z"/>
			<path class="st12" d="M-594.8-428.6h-8.4v-27.3h8.8c2.7,0,4.9,0.5,6.8,1.6c1.9,1.1,3.3,2.7,4.3,4.7c1,2,1.5,4.5,1.5,7.3
				c0,2.8-0.5,5.3-1.5,7.3c-1,2.1-2.5,3.6-4.4,4.7C-589.7-429.1-592-428.6-594.8-428.6z M-599.9-431.5h4.9c2.3,0,4.1-0.4,5.6-1.3
				c1.5-0.9,2.6-2.1,3.3-3.7s1.1-3.5,1.1-5.8c0-2.2-0.4-4.1-1.1-5.7c-0.7-1.6-1.8-2.8-3.2-3.7c-1.4-0.9-3.2-1.3-5.4-1.3h-5.3V-431.5
				z"/>
			<path class="st12" d="M-568.3-428.2c-1.9,0-3.5-0.4-4.9-1.3c-1.4-0.9-2.5-2.1-3.3-3.7c-0.8-1.6-1.2-3.4-1.2-5.6
				c0-2.1,0.4-4,1.2-5.6c0.8-1.6,1.9-2.8,3.3-3.7c1.4-0.9,3-1.3,4.9-1.3s3.5,0.4,4.9,1.3c1.4,0.9,2.5,2.1,3.3,3.7
				c0.8,1.6,1.2,3.5,1.2,5.6c0,2.1-0.4,4-1.2,5.6c-0.8,1.6-1.9,2.8-3.3,3.7C-564.9-428.6-566.5-428.2-568.3-428.2z M-568.3-431
				c1.4,0,2.6-0.4,3.5-1.1c0.9-0.7,1.6-1.7,2-2.8c0.4-1.2,0.7-2.4,0.7-3.8c0-1.4-0.2-2.6-0.7-3.8c-0.4-1.2-1.1-2.1-2-2.9
				c-0.9-0.7-2.1-1.1-3.5-1.1c-1.4,0-2.6,0.4-3.5,1.1c-0.9,0.7-1.6,1.7-2,2.9c-0.4,1.2-0.7,2.5-0.7,3.8c0,1.4,0.2,2.6,0.7,3.8
				c0.4,1.2,1.1,2.1,2,2.8C-570.9-431.4-569.7-431-568.3-431z"/>
			<path class="st12" d="M-545.3-449.1v2.7h-10.6v-2.7H-545.3z M-552.8-454h3.2v19.5c0,0.9,0.1,1.6,0.4,2c0.3,0.4,0.6,0.7,1,0.9
				c0.4,0.1,0.9,0.2,1.3,0.2c0.3,0,0.6,0,0.9-0.1c0.2,0,0.4-0.1,0.5-0.1l0.6,2.8c-0.2,0.1-0.5,0.2-0.9,0.2c-0.4,0.1-0.9,0.1-1.5,0.1
				c-0.9,0-1.8-0.2-2.6-0.6c-0.9-0.4-1.6-1-2.1-1.7s-0.8-1.8-0.8-3V-454z"/>
			<path class="st12" d="M-517.1-442.3c0,2.9-0.5,5.4-1.6,7.5s-2.5,3.7-4.3,4.9s-3.9,1.7-6.2,1.7c-2.3,0-4.4-0.6-6.2-1.7
				c-1.8-1.1-3.2-2.8-4.3-4.9s-1.6-4.6-1.6-7.5s0.5-5.4,1.6-7.5s2.5-3.7,4.3-4.9c1.8-1.1,3.9-1.7,6.2-1.7c2.3,0,4.4,0.6,6.2,1.7
				s3.2,2.8,4.3,4.9S-517.1-445.1-517.1-442.3z M-520.3-442.3c0-2.4-0.4-4.4-1.2-6c-0.8-1.6-1.9-2.9-3.2-3.7
				c-1.3-0.8-2.8-1.3-4.5-1.3c-1.7,0-3.2,0.4-4.5,1.3c-1.3,0.8-2.4,2.1-3.2,3.7c-0.8,1.6-1.2,3.6-1.2,6c0,2.4,0.4,4.4,1.2,6
				c0.8,1.6,1.9,2.9,3.2,3.7c1.3,0.8,2.8,1.3,4.5,1.3c1.7,0,3.2-0.4,4.5-1.3c1.3-0.8,2.4-2.1,3.2-3.7
				C-520.7-437.9-520.3-439.9-520.3-442.3z"/>
			<path class="st12" d="M-508.8-440.9v12.3h-3.2v-20.5h3v3.2h0.3c0.5-1,1.2-1.9,2.2-2.5c1-0.6,2.2-1,3.8-1c1.4,0,2.6,0.3,3.6,0.8
				c1,0.6,1.9,1.4,2.4,2.6c0.6,1.1,0.9,2.6,0.9,4.3v13h-3.2v-12.8c0-1.6-0.4-2.9-1.3-3.8c-0.8-0.9-2-1.4-3.4-1.4
				c-1,0-1.9,0.2-2.7,0.7c-0.8,0.4-1.4,1.1-1.9,1.9C-508.6-443.1-508.8-442.1-508.8-440.9z"/>
			<path class="st12" d="M-481.3-428.2c-2,0-3.7-0.4-5.1-1.3c-1.4-0.9-2.5-2.1-3.3-3.7c-0.8-1.6-1.2-3.4-1.2-5.5
				c0-2.1,0.4-4,1.2-5.6c0.8-1.6,1.8-2.9,3.2-3.8c1.4-0.9,3-1.4,4.9-1.4c1.1,0,2.1,0.2,3.2,0.5c1,0.4,2,0.9,2.8,1.7
				c0.9,0.8,1.5,1.8,2,3.2c0.5,1.3,0.8,2.9,0.8,4.8v1.3h-15.8v-2.7h12.6c0-1.2-0.2-2.2-0.7-3.1c-0.5-0.9-1.1-1.6-1.9-2.1
				s-1.8-0.8-3-0.8c-1.3,0-2.3,0.3-3.3,0.9c-0.9,0.6-1.6,1.4-2.1,2.4c-0.5,1-0.7,2-0.7,3.2v1.8c0,1.5,0.3,2.9,0.8,3.9
				c0.5,1.1,1.3,1.9,2.2,2.4c1,0.6,2.1,0.8,3.4,0.8c0.8,0,1.6-0.1,2.2-0.4c0.7-0.2,1.3-0.6,1.7-1.1c0.5-0.5,0.9-1.1,1.1-1.8l3,0.9
				c-0.3,1-0.9,1.9-1.6,2.7c-0.8,0.8-1.7,1.4-2.8,1.8C-478.7-428.4-479.9-428.2-481.3-428.2z"/>
			<path class="st12" d="M-435-447.4h-3.3c-0.2-1-0.5-1.8-1-2.5c-0.5-0.7-1.1-1.3-1.8-1.8c-0.7-0.5-1.5-0.9-2.3-1.1
				c-0.8-0.2-1.7-0.4-2.6-0.4c-1.7,0-3.2,0.4-4.5,1.3c-1.3,0.8-2.4,2.1-3.2,3.7c-0.8,1.6-1.2,3.6-1.2,6c0,2.4,0.4,4.4,1.2,6
				c0.8,1.6,1.9,2.9,3.2,3.7c1.3,0.8,2.8,1.3,4.5,1.3c0.9,0,1.8-0.1,2.6-0.4c0.8-0.2,1.6-0.6,2.3-1.1c0.7-0.5,1.3-1.1,1.8-1.8
				c0.5-0.7,0.8-1.6,1-2.5h3.3c-0.2,1.4-0.7,2.6-1.4,3.8c-0.7,1.1-1.5,2-2.5,2.8c-1,0.8-2.1,1.4-3.3,1.8c-1.2,0.4-2.5,0.6-3.9,0.6
				c-2.3,0-4.4-0.6-6.2-1.7c-1.8-1.1-3.2-2.8-4.3-4.9c-1-2.1-1.6-4.6-1.6-7.5s0.5-5.4,1.6-7.5c1-2.1,2.5-3.7,4.3-4.9
				c1.8-1.1,3.9-1.7,6.2-1.7c1.4,0,2.7,0.2,3.9,0.6c1.2,0.4,2.3,1,3.3,1.8c1,0.8,1.8,1.7,2.5,2.8C-435.7-450-435.3-448.8-435-447.4z
				"/>
			<path class="st12" d="M-421.8-428.2c-1.9,0-3.5-0.4-4.9-1.3c-1.4-0.9-2.5-2.1-3.3-3.7c-0.8-1.6-1.2-3.4-1.2-5.6
				c0-2.1,0.4-4,1.2-5.6c0.8-1.6,1.9-2.8,3.3-3.7c1.4-0.9,3-1.3,4.9-1.3c1.9,0,3.5,0.4,4.9,1.3c1.4,0.9,2.5,2.1,3.3,3.7
				c0.8,1.6,1.2,3.5,1.2,5.6c0,2.1-0.4,4-1.2,5.6c-0.8,1.6-1.9,2.8-3.3,3.7C-418.3-428.6-419.9-428.2-421.8-428.2z M-421.8-431
				c1.4,0,2.6-0.4,3.5-1.1c0.9-0.7,1.6-1.7,2-2.8c0.4-1.2,0.7-2.4,0.7-3.8c0-1.4-0.2-2.6-0.7-3.8c-0.4-1.2-1.1-2.1-2-2.9
				c-0.9-0.7-2.1-1.1-3.5-1.1c-1.4,0-2.6,0.4-3.5,1.1c-0.9,0.7-1.6,1.7-2,2.9c-0.4,1.2-0.7,2.5-0.7,3.8c0,1.4,0.2,2.6,0.7,3.8
				c0.4,1.2,1.1,2.1,2,2.8C-424.3-431.4-423.2-431-421.8-431z"/>
			<path class="st12" d="M-407.7-428.6v-20.5h3v3.2h0.3c0.4-1.1,1.1-1.9,2.1-2.6c1-0.6,2.1-0.9,3.4-0.9c1.4,0,2.5,0.3,3.4,0.9
				c0.9,0.6,1.6,1.5,2.1,2.6h0.2c0.5-1.1,1.3-1.9,2.4-2.5c1.1-0.6,2.3-0.9,3.8-0.9c1.8,0,3.3,0.6,4.5,1.7c1.2,1.1,1.7,2.9,1.7,5.3
				v13.7h-3.2v-13.7c0-1.5-0.4-2.6-1.2-3.2c-0.8-0.6-1.8-1-2.9-1c-1.4,0-2.6,0.4-3.4,1.3c-0.8,0.9-1.2,2-1.2,3.3v13.4h-3.2v-14
				c0-1.2-0.4-2.1-1.1-2.8c-0.8-0.7-1.7-1.1-2.9-1.1c-0.8,0-1.6,0.2-2.3,0.7c-0.7,0.4-1.3,1-1.7,1.8c-0.4,0.8-0.6,1.7-0.6,2.7v12.8
				H-407.7z"/>
			<path class="st12" d="M-375-420.9v-28.2h3v3.3h0.4c0.2-0.4,0.6-0.8,1-1.4c0.4-0.6,1-1.1,1.8-1.5s1.8-0.7,3.2-0.7
				c1.7,0,3.2,0.4,4.6,1.3c1.3,0.9,2.3,2.1,3.1,3.7c0.7,1.6,1.1,3.5,1.1,5.6c0,2.2-0.4,4.1-1.1,5.6c-0.7,1.6-1.8,2.8-3.1,3.7
				c-1.3,0.9-2.8,1.3-4.5,1.3c-1.3,0-2.4-0.2-3.2-0.7c-0.8-0.4-1.4-0.9-1.8-1.5c-0.4-0.6-0.8-1-1-1.4h-0.3v10.8H-375z M-371.9-438.8
				c0,1.5,0.2,2.9,0.7,4.1c0.5,1.2,1.1,2.1,2,2.8c0.9,0.7,1.9,1,3.2,1c1.3,0,2.4-0.3,3.3-1c0.9-0.7,1.6-1.6,2-2.8
				c0.4-1.2,0.7-2.5,0.7-4c0-1.4-0.2-2.7-0.7-3.9c-0.4-1.2-1.1-2.1-2-2.8c-0.9-0.7-2-1-3.3-1c-1.3,0-2.4,0.3-3.2,1
				c-0.9,0.6-1.5,1.5-2,2.7C-371.7-441.7-371.9-440.4-371.9-438.8z"/>
			<path class="st12" d="M-346.1-428.1c-1.3,0-2.5-0.2-3.5-0.7c-1.1-0.5-1.9-1.2-2.5-2.1c-0.6-0.9-0.9-2.1-0.9-3.4
				c0-1.2,0.2-2.1,0.7-2.9c0.5-0.7,1.1-1.3,1.9-1.7c0.8-0.4,1.6-0.7,2.6-0.9c0.9-0.2,1.9-0.4,2.8-0.5c1.2-0.2,2.3-0.3,3-0.4
				c0.8-0.1,1.3-0.2,1.7-0.4c0.4-0.2,0.5-0.6,0.5-1.1v-0.1c0-1.3-0.4-2.3-1.1-3.1c-0.7-0.7-1.8-1.1-3.3-1.1c-1.5,0-2.7,0.3-3.5,1
				s-1.5,1.4-1.8,2.1l-3-1.1c0.5-1.2,1.2-2.2,2.1-2.9c0.9-0.7,1.9-1.2,2.9-1.5c1.1-0.3,2.1-0.4,3.1-0.4c0.7,0,1.4,0.1,2.3,0.2
				c0.9,0.2,1.7,0.5,2.5,1c0.8,0.5,1.5,1.2,2,2.2c0.5,1,0.8,2.3,0.8,3.9v13.5h-3.2v-2.8h-0.2c-0.2,0.4-0.6,0.9-1.1,1.4
				c-0.5,0.5-1.2,0.9-2,1.3C-343.9-428.3-344.9-428.1-346.1-428.1z M-345.6-430.9c1.2,0,2.3-0.2,3.2-0.7c0.9-0.5,1.5-1.1,1.9-1.9
				c0.4-0.8,0.7-1.6,0.7-2.4v-2.9c-0.1,0.2-0.4,0.3-0.9,0.4c-0.4,0.1-1,0.2-1.5,0.3c-0.6,0.1-1.1,0.2-1.7,0.2
				c-0.5,0.1-1,0.1-1.3,0.2c-0.8,0.1-1.6,0.3-2.3,0.5c-0.7,0.2-1.3,0.6-1.7,1.1c-0.4,0.5-0.6,1.1-0.6,1.9c0,1.1,0.4,1.9,1.2,2.5
				C-347.9-431.2-346.8-430.9-345.6-430.9z"/>
			<path class="st12" d="M-327.7-440.9v12.3h-3.2v-20.5h3v3.2h0.3c0.5-1,1.2-1.9,2.2-2.5c1-0.6,2.2-1,3.8-1c1.4,0,2.6,0.3,3.6,0.8
				c1,0.6,1.9,1.4,2.4,2.6c0.6,1.1,0.9,2.6,0.9,4.3v13h-3.2v-12.8c0-1.6-0.4-2.9-1.3-3.8c-0.8-0.9-2-1.4-3.4-1.4
				c-1,0-1.9,0.2-2.7,0.7c-0.8,0.4-1.4,1.1-1.9,1.9C-327.5-443.1-327.7-442.1-327.7-440.9z"/>
			<path class="st12" d="M-307.6-421c-0.5,0-1,0-1.4-0.1c-0.4-0.1-0.7-0.2-0.9-0.2l0.8-2.8c1.1,0.3,2.1,0.3,2.9,0
				c0.8-0.3,1.4-1.2,2-2.8l0.6-1.6l-7.6-20.6h3.4l5.7,16.3h0.2l5.7-16.3l3.4,0.1l-8.7,23.4c-0.4,1-0.9,1.9-1.5,2.6
				c-0.6,0.7-1.2,1.2-2,1.5C-305.8-421.1-306.7-421-307.6-421z"/>
		</g>
	</g>
</g>
<g>
	<g>
		
			<linearGradient id="SVGID_00000174572763385741363650000004881167483770183312_" gradientUnits="userSpaceOnUse" x1="-392.801" y1="-1806.5514" x2="-269.3078" y2="-1677.1246">
			<stop  offset="0" style="stop-color:#4338CA"/>
			<stop  offset="1" style="stop-color:#7E56D8"/>
		</linearGradient>
		<path style="fill:url(#SVGID_00000174572763385741363650000004881167483770183312_);" d="M-241.8-1728.8c0,4.3-2.3,6.3-6.5,6.7
			c-0.9,0.1-1.8,0-2.7,0c-5.7,0-6,0.5-4.2,5.7c0.2,0.5,0.3,1,0.5,1.5c1.7,5,1.2,6.3-3.7,8.5c0.9,1.8,1.9,3.2,2.3,4.8
			c0.3,1.4,0.5,3.7-0.3,4.3c-4.2,3.6-3.9,8.4-3.6,13c0.6,9.5-6.6,14.3-14.2,14.2c-0.6,0-1.2,0-1.8,0h-48.7c0,0-1.8-13.8,4.6-24.5
			c0,0,0,0,0-0.1c1.8-3.5,4.3-6.8,7.3-9.9c6.2-6.5,11.9-13.4,17.3-20.5c2-2.6,3.4-6.3,3.5-9.6c0.3-17.5,0.2-35.1,0.1-52.6
			c0-5-2.6-7.5-8.3-7.5l-56.1,0c-6.1-0.1-7.9,1.6-7.9,7.8v10.7c0,34,0,68,0,102v4.3h-20.6v-82.2c0-8,0-16.1,0-24.1
			c0-8.7,0-17.5,0-26.2c0-11.7,8.4-20.7,20.2-20.8c20-0.3,40.1-0.9,60,0.2c22.5,1.2,39.2,16.8,44.7,39.8c1.4,5.6,1.6,11.5,1.6,17.3
			c0,5,1.1,9.5,3.7,13.7c3.6,5.6,7.3,11.1,10.6,16.8C-242.6-1733.7-241.8-1731.1-241.8-1728.8z"/>
		
			<linearGradient id="SVGID_00000072995383521739070980000016771016041921656966_" gradientUnits="userSpaceOnUse" x1="-409.6053" y1="-1790.5173" x2="-286.1122" y2="-1661.0907">
			<stop  offset="0" style="stop-color:#4338CA"/>
			<stop  offset="1" style="stop-color:#7E56D8"/>
		</linearGradient>
		<path style="fill:url(#SVGID_00000072995383521739070980000016771016041921656966_);" d="M-384.6-1776.4c0,8,0,16.1,0,24.1
			L-384.6-1776.4L-384.6-1776.4z"/>
		
			<linearGradient id="SVGID_00000151517032636281621110000008706602580536750494_" gradientUnits="userSpaceOnUse" x1="-376.3038" y1="-1822.2922" x2="-252.8107" y2="-1692.8655">
			<stop  offset="0" style="stop-color:#4338CA"/>
			<stop  offset="1" style="stop-color:#7E56D8"/>
		</linearGradient>
		<path style="fill:url(#SVGID_00000151517032636281621110000008706602580536750494_);" d="M-310.8-1767.8h-36.9
			c-2.9,0-5.2-2.3-5.2-5.2l0,0c0-2.9,2.3-5.2,5.2-5.2h36.9c2.9,0,5.2,2.3,5.2,5.2l0,0C-305.6-1770.1-307.9-1767.8-310.8-1767.8z"/>
		
			<linearGradient id="SVGID_00000085210472162246274920000001714124343395147148_" gradientUnits="userSpaceOnUse" x1="-390.1277" y1="-1809.1021" x2="-266.6346" y2="-1679.6753">
			<stop  offset="0" style="stop-color:#4338CA"/>
			<stop  offset="1" style="stop-color:#7E56D8"/>
		</linearGradient>
		<path style="fill:url(#SVGID_00000085210472162246274920000001714124343395147148_);" d="M-317.1-1743.4h-30.7
			c-2.9,0-5.2-2.3-5.2-5.2l0,0c0-2.9,2.3-5.2,5.2-5.2h30.7c2.9,0,5.2,2.3,5.2,5.2l0,0C-311.8-1745.7-314.2-1743.4-317.1-1743.4z"/>
		
			<linearGradient id="SVGID_00000023262574685334328300000008324567951864751532_" gradientUnits="userSpaceOnUse" x1="-404.7938" y1="-1795.1084" x2="-281.3006" y2="-1665.6816">
			<stop  offset="0" style="stop-color:#4338CA"/>
			<stop  offset="1" style="stop-color:#7E56D8"/>
		</linearGradient>
		<path style="fill:url(#SVGID_00000023262574685334328300000008324567951864751532_);" d="M-326.5-1719h-21.2
			c-2.9,0-5.2-2.3-5.2-5.2l0,0c0-2.9,2.3-5.2,5.2-5.2h21.2c2.9,0,5.2,2.3,5.2,5.2l0,0C-321.3-1721.3-323.6-1719-326.5-1719z"/>
	</g>
	<g>
		<g>
			<path class="st11" d="M-803.3-1767.5c0,5.5-0.9,10.6-2.8,15.2c-1.9,4.6-4.6,8.7-8,12.1s-7.6,6-12.5,7.9
				c-4.9,1.9-10.2,2.8-16.2,2.8h-29.6v-76.1h29.6c5.9,0,11.3,1,16.2,2.9s9,4.6,12.5,7.9c3.4,3.4,6.1,7.4,8,12
				C-804.3-1778-803.3-1773-803.3-1767.5z M-821.4-1767.5c0-3.8-0.5-7.2-1.5-10.2c-1-3-2.4-5.6-4.2-7.7c-1.8-2.1-4.1-3.7-6.7-4.9
				c-2.6-1.1-5.7-1.7-9-1.7h-11.8v48.9h11.8c3.4,0,6.4-0.6,9-1.7c2.6-1.1,4.9-2.8,6.7-4.9c1.8-2.1,3.2-4.7,4.2-7.7
				C-821.9-1760.3-821.4-1763.7-821.4-1767.5z"/>
			<path class="st11" d="M-797.2-1776.1c3.3-2.9,6.9-5,10.9-6.5c4-1.4,8.3-2.1,12.8-2.1c3.3,0,6.2,0.5,8.9,1.6
				c2.6,1.1,4.9,2.5,6.7,4.4c1.8,1.9,3.2,4.2,4.2,6.8c1,2.6,1.5,5.5,1.5,8.6v33.8h-7.4c-1.5,0-2.7-0.2-3.5-0.6
				c-0.8-0.4-1.4-1.3-2-2.6l-1.1-3c-1.4,1.1-2.7,2.2-3.9,3c-1.3,0.9-2.6,1.6-3.9,2.2c-1.3,0.6-2.8,1.1-4.3,1.4s-3.2,0.4-5,0.4
				c-2.5,0-4.7-0.3-6.7-1c-2-0.6-3.7-1.6-5.1-2.8c-1.4-1.3-2.5-2.8-3.3-4.7c-0.8-1.9-1.1-4-1.1-6.5c0-2,0.5-3.9,1.5-5.9
				c1-2,2.7-3.8,5.1-5.5c2.4-1.7,5.6-3,9.7-4.2c4.1-1.1,9.2-1.7,15.4-1.9v-2.3c0-3.2-0.7-5.5-2-6.9s-3.2-2.1-5.6-2.1
				c-1.9,0-3.5,0.2-4.7,0.6c-1.2,0.4-2.3,0.9-3.3,1.4c-1,0.5-1.9,1-2.8,1.4c-0.9,0.4-2,0.6-3.2,0.6c-1.1,0-2.1-0.3-2.8-0.8
				c-0.8-0.6-1.4-1.2-1.9-2L-797.2-1776.1z M-768-1751.5c-3.2,0.1-5.9,0.4-8,0.8s-3.7,0.9-5,1.6c-1.2,0.6-2.1,1.3-2.5,2.1
				c-0.5,0.8-0.7,1.7-0.7,2.6c0,1.8,0.5,3.1,1.5,3.9c1,0.7,2.5,1.1,4.4,1.1c2.1,0,3.9-0.4,5.5-1.1s3.2-1.9,4.8-3.6V-1751.5z"/>
			<path class="st11" d="M-707.5-1771.7c-0.4,0.7-0.9,1.1-1.3,1.4c-0.5,0.3-1.1,0.4-1.8,0.4c-0.8,0-1.5-0.2-2.3-0.5
				c-0.8-0.3-1.6-0.7-2.5-1.1c-0.9-0.4-1.9-0.7-3-1.1c-1.1-0.3-2.4-0.5-3.8-0.5c-2.1,0-3.6,0.4-4.7,1.2c-1.1,0.8-1.6,1.9-1.6,3.3
				c0,1,0.4,1.8,1.1,2.5c0.7,0.7,1.7,1.2,2.8,1.8c1.2,0.5,2.5,1,4,1.4c1.5,0.5,3,1,4.6,1.5c1.6,0.6,3.1,1.2,4.6,2
				c1.5,0.7,2.8,1.7,4,2.8c1.2,1.1,2.1,2.4,2.8,4c0.7,1.6,1.1,3.4,1.1,5.6c0,2.7-0.5,5.2-1.5,7.4c-1,2.3-2.4,4.2-4.4,5.9
				s-4.3,2.9-7.2,3.8c-2.8,0.9-6.1,1.4-9.8,1.4c-1.8,0-3.7-0.2-5.5-0.5c-1.8-0.3-3.6-0.8-5.4-1.4c-1.7-0.6-3.3-1.3-4.8-2.1
				s-2.7-1.7-3.8-2.6l3.8-6c0.4-0.7,0.9-1.2,1.6-1.6c0.6-0.4,1.5-0.6,2.5-0.6c0.9,0,1.8,0.2,2.5,0.6c0.7,0.4,1.6,0.9,2.4,1.4
				c0.9,0.5,1.9,0.9,3.1,1.4c1.2,0.4,2.6,0.6,4.4,0.6c1.3,0,2.3-0.1,3.2-0.4c0.9-0.3,1.6-0.6,2.1-1.1c0.5-0.5,0.9-1,1.1-1.5
				c0.2-0.6,0.4-1.1,0.4-1.7c0-1.1-0.4-2-1.1-2.7c-0.7-0.7-1.7-1.3-2.9-1.8c-1.2-0.5-2.5-1-4-1.4c-1.5-0.4-3.1-0.9-4.6-1.5
				c-1.6-0.6-3.1-1.2-4.6-2c-1.5-0.8-2.9-1.8-4-3c-1.2-1.2-2.1-2.7-2.9-4.4c-0.7-1.7-1.1-3.8-1.1-6.3c0-2.3,0.4-4.5,1.3-6.6
				c0.9-2.1,2.2-3.9,4-5.5c1.8-1.6,4-2.8,6.7-3.7c2.7-0.9,5.8-1.4,9.4-1.4c1.9,0,3.8,0.2,5.7,0.5c1.8,0.3,3.5,0.8,5.1,1.5
				c1.6,0.6,3.1,1.4,4.4,2.2c1.3,0.9,2.5,1.8,3.5,2.8L-707.5-1771.7z"/>
			<path class="st11" d="M-679.2-1778.8c1.9-1.7,4.1-3,6.3-4c2.3-1,5-1.5,8.2-1.5c3,0,5.6,0.5,7.9,1.5c2.3,1,4.2,2.5,5.8,4.3
				c1.6,1.8,2.8,4,3.6,6.5c0.8,2.5,1.2,5.3,1.2,8.2v34.4h-16.2v-34.4c0-2.6-0.6-4.7-1.8-6.2c-1.2-1.5-3-2.2-5.4-2.2
				c-1.8,0-3.4,0.4-5,1.1c-1.5,0.7-3.1,1.8-4.5,3.1v38.7h-16.2v-78.2h16.2V-1778.8z"/>
			<path class="st11" d="M-566-1767.5c0,5.5-0.9,10.6-2.8,15.2c-1.9,4.6-4.6,8.7-8,12.1s-7.6,6-12.5,7.9c-4.9,1.9-10.2,2.8-16.2,2.8
				h-29.6v-76.1h29.6c5.9,0,11.3,1,16.2,2.9s9,4.6,12.5,7.9c3.4,3.4,6.1,7.4,8,12C-567-1778-566-1773-566-1767.5z M-584.1-1767.5
				c0-3.8-0.5-7.2-1.5-10.2c-1-3-2.4-5.6-4.2-7.7c-1.8-2.1-4.1-3.7-6.7-4.9c-2.6-1.1-5.7-1.7-9-1.7h-11.8v48.9h11.8
				c3.4,0,6.4-0.6,9-1.7c2.6-1.1,4.9-2.8,6.7-4.9c1.8-2.1,3.2-4.7,4.2-7.7C-584.6-1760.3-584.1-1763.7-584.1-1767.5z"/>
			<path class="st11" d="M-533.1-1784.4c4.1,0,7.9,0.6,11.2,1.9c3.4,1.3,6.3,3.1,8.7,5.5c2.4,2.4,4.3,5.3,5.6,8.7
				c1.3,3.4,2,7.3,2,11.6c0,4.3-0.7,8.2-2,11.7c-1.3,3.5-3.2,6.4-5.6,8.8c-2.4,2.4-5.3,4.3-8.7,5.6s-7.1,2-11.2,2
				c-4.1,0-7.9-0.7-11.3-2c-3.4-1.3-6.3-3.2-8.8-5.6c-2.5-2.4-4.4-5.4-5.7-8.8c-1.3-3.5-2-7.4-2-11.7c0-4.3,0.7-8.1,2-11.6
				c1.3-3.4,3.2-6.3,5.7-8.7c2.5-2.4,5.4-4.2,8.8-5.5C-541-1783.8-537.3-1784.4-533.1-1784.4z M-533.1-1740.6c3.7,0,6.5-1.3,8.2-3.9
				c1.8-2.6,2.6-6.6,2.6-12c0-5.4-0.9-9.3-2.6-12c-1.8-2.6-4.5-3.9-8.2-3.9c-3.8,0-6.6,1.3-8.4,3.9c-1.8,2.6-2.7,6.6-2.7,12
				c0,5.4,0.9,9.4,2.7,12C-539.8-1741.9-537-1740.6-533.1-1740.6z"/>
			<path class="st11" d="M-448.1-1729.4h-15.6c-1.1,0-2.1-0.3-2.8-0.8c-0.7-0.6-1.3-1.2-1.7-2l-9.7-16.6c-0.2,0.6-0.4,1.1-0.6,1.7
				c-0.2,0.5-0.5,1-0.8,1.5l-7.9,13.5c-0.5,0.7-1.1,1.3-1.7,1.9s-1.5,0.9-2.6,0.9h-14.4l18.2-28l-17.4-26.2h15.6
				c1.1,0,2,0.1,2.5,0.4c0.5,0.3,1,0.8,1.4,1.5l9.7,16c0.2-0.6,0.5-1.2,0.8-1.9c0.3-0.6,0.7-1.2,1-1.9l6.9-12.1
				c0.5-0.8,1-1.3,1.5-1.7c0.5-0.3,1.2-0.5,2-0.5h14.8l-17.4,25.4L-448.1-1729.4z"/>
			<path class="st11" d="M-408.7-1771.7c-0.4,0.7-0.9,1.1-1.3,1.4c-0.5,0.3-1.1,0.4-1.8,0.4c-0.8,0-1.5-0.2-2.3-0.5
				c-0.8-0.3-1.6-0.7-2.5-1.1c-0.9-0.4-1.9-0.7-3-1.1c-1.1-0.3-2.4-0.5-3.8-0.5c-2.1,0-3.6,0.4-4.7,1.2c-1.1,0.8-1.6,1.9-1.6,3.3
				c0,1,0.4,1.8,1.1,2.5c0.7,0.7,1.7,1.2,2.8,1.8c1.2,0.5,2.5,1,4,1.4c1.5,0.5,3,1,4.6,1.5c1.6,0.6,3.1,1.2,4.6,2
				c1.5,0.7,2.8,1.7,4,2.8c1.2,1.1,2.1,2.4,2.8,4s1.1,3.4,1.1,5.6c0,2.7-0.5,5.2-1.5,7.4c-1,2.3-2.4,4.2-4.4,5.9s-4.3,2.9-7.2,3.8
				c-2.8,0.9-6.1,1.4-9.8,1.4c-1.8,0-3.7-0.2-5.5-0.5c-1.8-0.3-3.6-0.8-5.4-1.4c-1.7-0.6-3.3-1.3-4.8-2.1c-1.5-0.8-2.7-1.7-3.8-2.6
				l3.8-6c0.4-0.7,0.9-1.2,1.6-1.6c0.6-0.4,1.5-0.6,2.5-0.6c0.9,0,1.8,0.2,2.5,0.6s1.6,0.9,2.4,1.4s1.9,0.9,3.1,1.4s2.6,0.6,4.4,0.6
				c1.3,0,2.3-0.1,3.2-0.4c0.9-0.3,1.6-0.6,2.1-1.1c0.5-0.5,0.9-1,1.1-1.5c0.2-0.6,0.4-1.1,0.4-1.7c0-1.1-0.4-2-1.1-2.7
				s-1.7-1.3-2.9-1.8c-1.2-0.5-2.5-1-4-1.4c-1.5-0.4-3.1-0.9-4.6-1.5c-1.6-0.6-3.1-1.2-4.6-2c-1.5-0.8-2.9-1.8-4-3
				c-1.2-1.2-2.1-2.7-2.9-4.4c-0.7-1.7-1.1-3.8-1.1-6.3c0-2.3,0.4-4.5,1.3-6.6c0.9-2.1,2.2-3.9,4-5.5c1.8-1.6,4-2.8,6.7-3.7
				c2.7-0.9,5.8-1.4,9.4-1.4c2,0,3.8,0.2,5.7,0.5c1.8,0.3,3.5,0.8,5.1,1.5c1.6,0.6,3.1,1.4,4.4,2.2c1.3,0.9,2.5,1.8,3.5,2.8
				L-408.7-1771.7z"/>
		</g>
	</g>
	<g>
		<path class="st12" d="M-868.5-1685.8h-3l8.8-23.8h3l8.8,23.8h-3l-7.1-20.1h-0.2L-868.5-1685.8z M-867.4-1695.1h12.2v2.6h-12.2
			V-1695.1z"/>
		<path class="st12" d="M-838.1-1685.8v-23.8h2.9v21.3h11.1v2.6H-838.1z"/>
		<path class="st12" d="M-812.8-1685.4c-1.6,0-3-0.4-4.2-1.2c-1.2-0.8-2.2-1.8-2.8-3.2c-0.7-1.4-1-3-1-4.8c0-1.9,0.3-3.5,1-4.9
			c0.7-1.4,1.6-2.5,2.8-3.2c1.2-0.8,2.6-1.2,4.2-1.2s3,0.4,4.2,1.2c1.2,0.8,2.2,1.8,2.8,3.2c0.7,1.4,1,3,1,4.9c0,1.8-0.3,3.5-1,4.8
			c-0.7,1.4-1.6,2.5-2.8,3.2C-809.8-1685.8-811.2-1685.4-812.8-1685.4z M-812.8-1687.9c1.2,0,2.2-0.3,3-0.9c0.8-0.6,1.4-1.5,1.8-2.5
			c0.4-1,0.6-2.1,0.6-3.3c0-1.2-0.2-2.3-0.6-3.3c-0.4-1-1-1.9-1.8-2.5c-0.8-0.6-1.8-1-3-1c-1.2,0-2.2,0.3-3,1
			c-0.8,0.6-1.4,1.5-1.8,2.5c-0.4,1-0.6,2.1-0.6,3.3c0,1.2,0.2,2.3,0.6,3.3c0.4,1,1,1.9,1.8,2.5
			C-815-1688.2-814-1687.9-812.8-1687.9z"/>
		<path class="st12" d="M-797.8-1696.6v10.8h-2.7v-17.9h2.7v2.8h0.2c0.4-0.9,1.1-1.6,1.9-2.2s2-0.8,3.3-0.8c1.2,0,2.3,0.2,3.2,0.7
			c0.9,0.5,1.6,1.2,2.1,2.2s0.8,2.3,0.8,3.8v11.4h-2.7v-11.2c0-1.4-0.4-2.5-1.1-3.3c-0.7-0.8-1.7-1.2-3-1.2c-0.9,0-1.7,0.2-2.3,0.6
			c-0.7,0.4-1.2,0.9-1.6,1.7C-797.6-1698.5-797.8-1697.6-797.8-1696.6z"/>
		<path class="st12" d="M-774.1-1678.7c-1.3,0-2.5-0.2-3.4-0.5c-1-0.3-1.7-0.8-2.4-1.3c-0.6-0.5-1.1-1.1-1.5-1.8l2.2-1.5
			c0.2,0.3,0.6,0.7,0.9,1.1c0.4,0.4,0.9,0.8,1.6,1.1c0.7,0.3,1.5,0.5,2.6,0.5c1.4,0,2.6-0.3,3.6-1c0.9-0.7,1.4-1.8,1.4-3.3v-3.6
			h-0.2c-0.2,0.3-0.5,0.7-0.9,1.2c-0.4,0.5-0.9,0.9-1.6,1.3s-1.6,0.6-2.8,0.6c-1.4,0-2.7-0.3-3.9-1s-2-1.7-2.7-3
			c-0.7-1.3-1-2.9-1-4.7c0-1.8,0.3-3.4,1-4.8c0.6-1.4,1.5-2.4,2.7-3.2c1.1-0.7,2.5-1.1,4-1.1c1.2,0,2.1,0.2,2.8,0.6
			c0.7,0.4,1.2,0.8,1.6,1.3c0.4,0.5,0.7,0.9,0.9,1.2h0.3v-2.8h2.7v18.4c0,1.5-0.3,2.8-1,3.8s-1.6,1.7-2.8,2.1
			C-771.4-1679-772.7-1678.7-774.1-1678.7z M-774.2-1688.5c1.1,0,2-0.3,2.8-0.8c0.8-0.5,1.3-1.2,1.7-2.2c0.4-0.9,0.6-2.1,0.6-3.4
			c0-1.3-0.2-2.4-0.6-3.4c-0.4-1-1-1.8-1.7-2.3s-1.7-0.8-2.8-0.8c-1.2,0-2.1,0.3-2.9,0.9c-0.8,0.6-1.4,1.4-1.7,2.4
			c-0.4,1-0.6,2.1-0.6,3.3c0,1.2,0.2,2.3,0.6,3.3s1,1.7,1.7,2.2C-776.3-1688.8-775.3-1688.5-774.2-1688.5z"/>
		<path class="st12" d="M-761-1685.8v-23.8h2.9v21.3h11.1v2.6H-761z"/>
		<path class="st12" d="M-735.4-1685.4c-1.7,0-3.2-0.4-4.5-1.1c-1.2-0.8-2.2-1.8-2.9-3.2c-0.7-1.4-1-3-1-4.8s0.3-3.4,1-4.8
			c0.7-1.4,1.6-2.5,2.8-3.3c1.2-0.8,2.6-1.2,4.2-1.2c0.9,0,1.9,0.2,2.8,0.5c0.9,0.3,1.7,0.8,2.5,1.5c0.7,0.7,1.3,1.6,1.8,2.8
			c0.4,1.1,0.7,2.5,0.7,4.2v1.2h-13.8v-2.4h11c0-1-0.2-1.9-0.6-2.7c-0.4-0.8-1-1.4-1.7-1.9s-1.6-0.7-2.6-0.7c-1.1,0-2,0.3-2.8,0.8
			c-0.8,0.5-1.4,1.2-1.8,2.1s-0.6,1.8-0.6,2.8v1.6c0,1.4,0.2,2.5,0.7,3.4c0.5,0.9,1.1,1.6,2,2.1s1.8,0.7,2.9,0.7
			c0.7,0,1.4-0.1,2-0.3c0.6-0.2,1.1-0.5,1.5-0.9s0.8-0.9,1-1.6l2.7,0.7c-0.3,0.9-0.7,1.7-1.4,2.4c-0.7,0.7-1.5,1.2-2.4,1.6
			C-733.1-1685.6-734.2-1685.4-735.4-1685.4z"/>
		<path class="st12" d="M-718.6-1685.4c-1.1,0-2.2-0.2-3.1-0.6s-1.7-1.1-2.2-1.9c-0.5-0.8-0.8-1.8-0.8-3c0-1,0.2-1.9,0.6-2.5
			c0.4-0.6,0.9-1.1,1.6-1.5c0.7-0.4,1.4-0.6,2.2-0.8c0.8-0.2,1.6-0.3,2.5-0.4c1.1-0.1,2-0.2,2.6-0.3c0.7-0.1,1.2-0.2,1.5-0.4
			c0.3-0.2,0.5-0.5,0.5-0.9v-0.1c0-1.1-0.3-2-0.9-2.7c-0.6-0.6-1.6-1-2.8-1c-1.3,0-2.3,0.3-3.1,0.9c-0.7,0.6-1.3,1.2-1.6,1.8
			l-2.6-0.9c0.5-1.1,1.1-1.9,1.9-2.5c0.8-0.6,1.6-1,2.6-1.3c0.9-0.2,1.8-0.4,2.7-0.4c0.6,0,1.2,0.1,2,0.2c0.7,0.1,1.5,0.4,2.2,0.8
			s1.3,1.1,1.8,1.9c0.5,0.8,0.7,2,0.7,3.4v11.8h-2.7v-2.4h-0.1c-0.2,0.4-0.5,0.8-0.9,1.2s-1,0.8-1.7,1.1
			C-716.6-1685.5-717.5-1685.4-718.6-1685.4z M-718.1-1687.9c1.1,0,2-0.2,2.8-0.6c0.7-0.4,1.3-1,1.7-1.7c0.4-0.7,0.6-1.4,0.6-2.1
			v-2.5c-0.1,0.1-0.4,0.3-0.8,0.4c-0.4,0.1-0.8,0.2-1.4,0.3c-0.5,0.1-1,0.2-1.5,0.2c-0.5,0.1-0.9,0.1-1.2,0.1
			c-0.7,0.1-1.4,0.2-2,0.4c-0.6,0.2-1.1,0.5-1.5,0.9c-0.4,0.4-0.6,1-0.6,1.7c0,1,0.4,1.7,1.1,2.2
			C-720.1-1688.1-719.2-1687.9-718.1-1687.9z"/>
		<path class="st12" d="M-705.3-1679.1v-24.6h2.7v2.8h0.3c0.2-0.3,0.5-0.7,0.8-1.2c0.4-0.5,0.9-0.9,1.6-1.3c0.7-0.4,1.6-0.6,2.8-0.6
			c1.5,0,2.8,0.4,4,1.1s2,1.8,2.7,3.2c0.6,1.4,1,3,1,4.9c0,1.9-0.3,3.5-1,4.9s-1.5,2.5-2.7,3.2c-1.1,0.8-2.5,1.1-3.9,1.1
			c-1.1,0-2.1-0.2-2.8-0.6c-0.7-0.4-1.2-0.8-1.6-1.3c-0.4-0.5-0.7-0.9-0.9-1.2h-0.2v9.5H-705.3z M-702.6-1694.7
			c0,1.4,0.2,2.5,0.6,3.6s1,1.8,1.7,2.4c0.8,0.6,1.7,0.9,2.8,0.9c1.1,0,2.1-0.3,2.9-0.9c0.8-0.6,1.4-1.4,1.7-2.5
			c0.4-1,0.6-2.2,0.6-3.5c0-1.3-0.2-2.4-0.6-3.4c-0.4-1-1-1.8-1.7-2.4s-1.7-0.9-2.9-0.9c-1.1,0-2.1,0.3-2.8,0.8
			c-0.8,0.6-1.3,1.3-1.7,2.4S-702.6-1696.1-702.6-1694.7z"/>
		<path class="st12" d="M-677.6-1685.8h-7.4v-23.8h7.7c2.3,0,4.3,0.5,5.9,1.4c1.6,1,2.9,2.3,3.8,4.1c0.9,1.8,1.3,3.9,1.3,6.4
			c0,2.5-0.4,4.6-1.3,6.4c-0.9,1.8-2.2,3.2-3.9,4.1C-673.2-1686.3-675.2-1685.8-677.6-1685.8z M-682.1-1688.4h4.3
			c2,0,3.6-0.4,4.9-1.1c1.3-0.8,2.3-1.8,2.9-3.2s1-3.1,1-5c0-1.9-0.3-3.6-0.9-5c-0.6-1.4-1.6-2.5-2.8-3.2c-1.2-0.7-2.8-1.1-4.7-1.1
			h-4.6V-1688.4z"/>
		<path class="st12" d="M-654.6-1685.4c-1.6,0-3-0.4-4.2-1.2c-1.2-0.8-2.2-1.8-2.8-3.2c-0.7-1.4-1-3-1-4.8c0-1.9,0.3-3.5,1-4.9
			c0.7-1.4,1.6-2.5,2.8-3.2c1.2-0.8,2.6-1.2,4.2-1.2s3,0.4,4.2,1.2c1.2,0.8,2.2,1.8,2.8,3.2c0.7,1.4,1,3,1,4.9c0,1.8-0.3,3.5-1,4.8
			c-0.7,1.4-1.6,2.5-2.8,3.2C-651.5-1685.8-652.9-1685.4-654.6-1685.4z M-654.6-1687.9c1.2,0,2.2-0.3,3-0.9c0.8-0.6,1.4-1.5,1.8-2.5
			c0.4-1,0.6-2.1,0.6-3.3c0-1.2-0.2-2.3-0.6-3.3c-0.4-1-1-1.9-1.8-2.5c-0.8-0.6-1.8-1-3-1c-1.2,0-2.2,0.3-3,1
			c-0.8,0.6-1.4,1.5-1.8,2.5c-0.4,1-0.6,2.1-0.6,3.3c0,1.2,0.2,2.3,0.6,3.3c0.4,1,1,1.9,1.8,2.5
			C-656.8-1688.2-655.8-1687.9-654.6-1687.9z"/>
		<path class="st12" d="M-634.5-1703.7v2.3h-9.3v-2.3H-634.5z M-641.1-1708h2.7v17c0,0.8,0.1,1.4,0.3,1.7c0.2,0.4,0.5,0.6,0.9,0.8
			c0.4,0.1,0.7,0.2,1.1,0.2c0.3,0,0.6,0,0.7-0.1c0.2,0,0.3-0.1,0.5-0.1l0.6,2.5c-0.2,0.1-0.4,0.1-0.8,0.2c-0.3,0.1-0.8,0.1-1.3,0.1
			c-0.8,0-1.5-0.2-2.3-0.5c-0.7-0.3-1.4-0.8-1.8-1.5s-0.7-1.5-0.7-2.6V-1708z"/>
		<path class="st12" d="M-609.9-1697.7c0,2.5-0.5,4.7-1.4,6.5s-2.2,3.2-3.7,4.2s-3.4,1.5-5.4,1.5c-2,0-3.8-0.5-5.4-1.5
			c-1.6-1-2.8-2.4-3.7-4.2s-1.4-4-1.4-6.5s0.5-4.7,1.4-6.5s2.2-3.2,3.7-4.2c1.6-1,3.4-1.5,5.4-1.5c2,0,3.8,0.5,5.4,1.5
			s2.8,2.4,3.7,4.2S-609.9-1700.2-609.9-1697.7z M-612.7-1697.7c0-2.1-0.3-3.8-1-5.2s-1.6-2.5-2.8-3.2c-1.2-0.7-2.5-1.1-3.9-1.1
			c-1.4,0-2.7,0.4-3.9,1.1c-1.2,0.7-2.1,1.8-2.8,3.2c-0.7,1.4-1,3.2-1,5.2c0,2.1,0.3,3.8,1,5.2c0.7,1.4,1.6,2.5,2.8,3.2
			c1.2,0.7,2.5,1.1,3.9,1.1c1.4,0,2.7-0.4,3.9-1.1c1.2-0.7,2.1-1.8,2.8-3.2S-612.7-1695.7-612.7-1697.7z"/>
		<path class="st12" d="M-602.6-1696.6v10.8h-2.7v-17.9h2.7v2.8h0.2c0.4-0.9,1.1-1.6,1.9-2.2s2-0.8,3.3-0.8c1.2,0,2.3,0.2,3.2,0.7
			c0.9,0.5,1.6,1.2,2.1,2.2s0.8,2.3,0.8,3.8v11.4h-2.7v-11.2c0-1.4-0.4-2.5-1.1-3.3c-0.7-0.8-1.7-1.2-3-1.2c-0.9,0-1.7,0.2-2.3,0.6
			c-0.7,0.4-1.2,0.9-1.6,1.7C-602.4-1698.5-602.6-1697.6-602.6-1696.6z"/>
		<path class="st12" d="M-578.7-1685.4c-1.7,0-3.2-0.4-4.5-1.1c-1.2-0.8-2.2-1.8-2.9-3.2c-0.7-1.4-1-3-1-4.8s0.3-3.4,1-4.8
			c0.7-1.4,1.6-2.5,2.8-3.3c1.2-0.8,2.6-1.2,4.2-1.2c0.9,0,1.9,0.2,2.8,0.5c0.9,0.3,1.7,0.8,2.5,1.5c0.7,0.7,1.3,1.6,1.8,2.8
			c0.4,1.1,0.7,2.5,0.7,4.2v1.2h-13.8v-2.4h11c0-1-0.2-1.9-0.6-2.7c-0.4-0.8-1-1.4-1.7-1.9s-1.6-0.7-2.6-0.7c-1.1,0-2,0.3-2.8,0.8
			c-0.8,0.5-1.4,1.2-1.8,2.1s-0.6,1.8-0.6,2.8v1.6c0,1.4,0.2,2.5,0.7,3.4c0.5,0.9,1.1,1.6,2,2.1s1.8,0.7,2.9,0.7
			c0.7,0,1.4-0.1,2-0.3c0.6-0.2,1.1-0.5,1.5-0.9s0.8-0.9,1-1.6l2.7,0.7c-0.3,0.9-0.7,1.7-1.4,2.4c-0.7,0.7-1.5,1.2-2.4,1.6
			C-576.4-1685.6-577.5-1685.4-578.7-1685.4z"/>
		<path class="st12" d="M-538.4-1702.2h-2.9c-0.2-0.8-0.5-1.6-0.9-2.2c-0.4-0.6-0.9-1.2-1.5-1.6c-0.6-0.4-1.3-0.8-2-1
			c-0.7-0.2-1.5-0.3-2.3-0.3c-1.4,0-2.7,0.4-3.9,1.1c-1.2,0.7-2.1,1.8-2.8,3.2c-0.7,1.4-1,3.2-1,5.2c0,2.1,0.3,3.8,1,5.2
			c0.7,1.4,1.6,2.5,2.8,3.2c1.2,0.7,2.5,1.1,3.9,1.1c0.8,0,1.6-0.1,2.3-0.3c0.7-0.2,1.4-0.5,2-1c0.6-0.4,1.1-1,1.5-1.6
			c0.4-0.6,0.7-1.4,0.9-2.2h2.9c-0.2,1.2-0.6,2.3-1.2,3.3c-0.6,1-1.3,1.8-2.1,2.4c-0.9,0.7-1.8,1.2-2.9,1.5
			c-1.1,0.3-2.2,0.5-3.4,0.5c-2,0-3.8-0.5-5.4-1.5c-1.6-1-2.8-2.4-3.7-4.2c-0.9-1.8-1.4-4-1.4-6.5s0.5-4.7,1.4-6.5
			c0.9-1.8,2.2-3.2,3.7-4.2c1.6-1,3.4-1.5,5.4-1.5c1.2,0,2.3,0.2,3.4,0.5c1.1,0.3,2,0.9,2.9,1.5c0.9,0.7,1.6,1.5,2.1,2.4
			S-538.6-1703.4-538.4-1702.2z"/>
		<path class="st12" d="M-526.8-1685.4c-1.6,0-3-0.4-4.2-1.2c-1.2-0.8-2.2-1.8-2.8-3.2c-0.7-1.4-1-3-1-4.8c0-1.9,0.3-3.5,1-4.9
			s1.6-2.5,2.8-3.2c1.2-0.8,2.6-1.2,4.2-1.2c1.6,0,3,0.4,4.2,1.2c1.2,0.8,2.2,1.8,2.8,3.2s1,3,1,4.9c0,1.8-0.3,3.5-1,4.8
			c-0.7,1.4-1.6,2.5-2.8,3.2C-523.8-1685.8-525.2-1685.4-526.8-1685.4z M-526.8-1687.9c1.2,0,2.2-0.3,3-0.9c0.8-0.6,1.4-1.5,1.8-2.5
			s0.6-2.1,0.6-3.3c0-1.2-0.2-2.3-0.6-3.3c-0.4-1-1-1.9-1.8-2.5c-0.8-0.6-1.8-1-3-1c-1.2,0-2.2,0.3-3,1c-0.8,0.6-1.4,1.5-1.8,2.5
			c-0.4,1-0.6,2.1-0.6,3.3c0,1.2,0.2,2.3,0.6,3.3c0.4,1,1,1.9,1.8,2.5C-529-1688.2-528-1687.9-526.8-1687.9z"/>
		<path class="st12" d="M-514.5-1685.8v-17.9h2.7v2.8h0.2c0.4-1,1-1.7,1.8-2.2c0.8-0.5,1.8-0.8,3-0.8c1.2,0,2.2,0.3,3,0.8
			c0.8,0.5,1.4,1.3,1.8,2.2h0.2c0.5-0.9,1.1-1.7,2.1-2.2c0.9-0.5,2-0.8,3.3-0.8c1.6,0,2.9,0.5,3.9,1.5c1,1,1.5,2.5,1.5,4.7v12h-2.7
			v-12c0-1.3-0.4-2.3-1.1-2.8c-0.7-0.6-1.6-0.8-2.5-0.8c-1.3,0-2.2,0.4-2.9,1.1c-0.7,0.8-1,1.7-1,2.9v11.6h-2.8v-12.2
			c0-1-0.3-1.8-1-2.5s-1.5-0.9-2.5-0.9c-0.7,0-1.4,0.2-2,0.6c-0.6,0.4-1.1,0.9-1.5,1.6c-0.4,0.7-0.6,1.4-0.6,2.3v11.2H-514.5z"/>
		<path class="st12" d="M-486-1679.1v-24.6h2.7v2.8h0.3c0.2-0.3,0.5-0.7,0.8-1.2c0.4-0.5,0.9-0.9,1.6-1.3s1.6-0.6,2.8-0.6
			c1.5,0,2.8,0.4,4,1.1c1.1,0.8,2,1.8,2.7,3.2c0.6,1.4,1,3,1,4.9c0,1.9-0.3,3.5-1,4.9c-0.6,1.4-1.5,2.5-2.7,3.2
			c-1.1,0.8-2.5,1.1-3.9,1.1c-1.1,0-2.1-0.2-2.8-0.6c-0.7-0.4-1.2-0.8-1.6-1.3c-0.4-0.5-0.7-0.9-0.9-1.2h-0.2v9.5H-486z
			 M-483.3-1694.7c0,1.4,0.2,2.5,0.6,3.6s1,1.8,1.7,2.4c0.8,0.6,1.7,0.9,2.8,0.9c1.1,0,2.1-0.3,2.9-0.9c0.8-0.6,1.4-1.4,1.7-2.5
			c0.4-1,0.6-2.2,0.6-3.5c0-1.3-0.2-2.4-0.6-3.4c-0.4-1-1-1.8-1.7-2.4c-0.8-0.6-1.7-0.9-2.9-0.9c-1.1,0-2.1,0.3-2.8,0.8
			c-0.8,0.6-1.3,1.3-1.7,2.4S-483.3-1696.1-483.3-1694.7z"/>
		<path class="st12" d="M-460.8-1685.4c-1.1,0-2.2-0.2-3.1-0.6c-0.9-0.4-1.7-1.1-2.2-1.9s-0.8-1.8-0.8-3c0-1,0.2-1.9,0.6-2.5
			c0.4-0.6,0.9-1.1,1.6-1.5c0.7-0.4,1.4-0.6,2.2-0.8c0.8-0.2,1.6-0.3,2.5-0.4c1.1-0.1,2-0.2,2.6-0.3c0.7-0.1,1.2-0.2,1.5-0.4
			s0.5-0.5,0.5-0.9v-0.1c0-1.1-0.3-2-0.9-2.7c-0.6-0.6-1.6-1-2.8-1c-1.3,0-2.3,0.3-3.1,0.9s-1.3,1.2-1.6,1.8l-2.6-0.9
			c0.5-1.1,1.1-1.9,1.9-2.5c0.8-0.6,1.6-1,2.6-1.3c0.9-0.2,1.8-0.4,2.7-0.4c0.6,0,1.2,0.1,2,0.2c0.7,0.1,1.5,0.4,2.2,0.8
			s1.3,1.1,1.8,1.9s0.7,2,0.7,3.4v11.8h-2.7v-2.4h-0.1c-0.2,0.4-0.5,0.8-0.9,1.2s-1,0.8-1.7,1.1
			C-458.9-1685.5-459.8-1685.4-460.8-1685.4z M-460.4-1687.9c1.1,0,2-0.2,2.8-0.6c0.7-0.4,1.3-1,1.7-1.7c0.4-0.7,0.6-1.4,0.6-2.1
			v-2.5c-0.1,0.1-0.4,0.3-0.8,0.4s-0.8,0.2-1.3,0.3c-0.5,0.1-1,0.2-1.5,0.2c-0.5,0.1-0.9,0.1-1.2,0.1c-0.7,0.1-1.4,0.2-2,0.4
			c-0.6,0.2-1.1,0.5-1.5,0.9c-0.4,0.4-0.6,1-0.6,1.7c0,1,0.4,1.7,1.1,2.2C-462.4-1688.1-461.5-1687.9-460.4-1687.9z"/>
		<path class="st12" d="M-444.8-1696.6v10.8h-2.7v-17.9h2.7v2.8h0.2c0.4-0.9,1.1-1.6,1.9-2.2s2-0.8,3.3-0.8c1.2,0,2.3,0.2,3.2,0.7
			c0.9,0.5,1.6,1.2,2.1,2.2c0.5,1,0.8,2.3,0.8,3.8v11.4h-2.7v-11.2c0-1.4-0.4-2.5-1.1-3.3c-0.7-0.8-1.7-1.2-3-1.2
			c-0.9,0-1.7,0.2-2.3,0.6c-0.7,0.4-1.2,0.9-1.6,1.7C-444.6-1698.5-444.8-1697.6-444.8-1696.6z"/>
		<path class="st12" d="M-427.3-1679.1c-0.5,0-0.9,0-1.2-0.1c-0.4-0.1-0.6-0.1-0.8-0.2l0.7-2.4c1,0.3,1.8,0.3,2.5,0
			c0.7-0.3,1.2-1.1,1.7-2.4l0.5-1.4l-6.6-18h3l4.9,14.2h0.2l4.9-14.2l3,0l-7.6,20.4c-0.3,0.9-0.8,1.7-1.3,2.3
			c-0.5,0.6-1.1,1-1.8,1.3S-426.4-1679.1-427.3-1679.1z"/>
	</g>
</g>
</svg>
